<?xml version="1.0" encoding="UTF-8"?>
<svg id="_Слой_2" data-name="Слой 2" xmlns="http://www.w3.org/2000/svg" viewBox="0 0 91.95 314.82">
  <defs>
    <style>
      .cls-1 {
        fill: none;
        stroke: #231f20;
        stroke-miterlimit: 10;
      }

      .cls-2 {
        fill: #231f20;
      }
    </style>
  </defs>
  <g id="Layer_1" data-name="Layer 1">
    <line class="cls-1" x1="91.45" x2="91.45" y2="314.82"/>
    <g>
      <path class="cls-2" d="M1.17,144.98l20.61-19.96c7.02-6.83,8.12-10.47,8.12-13.78,0-5.53-4.94-10.27-12.03-10.27-6.7,0-11.31,3.9-14.17,9.17l-1.23-.71c3.05-5.66,8.12-9.75,15.47-9.75,8,0,13.39,5.2,13.39,11.44v.13c0,3.96-1.23,7.47-8.71,14.82L3.51,144.53H31.98v1.3H1.17v-.84Z"/>
      <path class="cls-2" d="M36.07,138.48l1.17-.91c3.31,4.48,8.65,7.73,15.21,7.73,7.22,0,13.26-4.68,13.26-11.18v-.13c0-8-6.89-11.31-16.9-11.31h-1.56l-.46-.91,17.68-20.15h-25.94v-1.3h27.82v1.04l-17.55,20.02c11.25,0,18.33,4.03,18.33,12.54v.13c0,7.28-6.69,12.55-14.75,12.55-7.08,0-12.68-3.38-16.32-8.13Z"/>
      <path class="cls-2" d="M0,201.14v-.13c0-12.42,6.76-23.47,18.59-23.47s18.59,10.99,18.59,23.47v.13c0,12.42-6.76,23.47-18.59,23.47S0,213.62,0,201.14Zm35.75,.06v-.13c0-11.57-6.24-22.23-17.23-22.23S1.43,189.31,1.43,200.95v.13c0,11.57,6.24,22.23,17.23,22.23s17.1-10.46,17.1-22.1Z"/>
      <path class="cls-2" d="M70.07,179.63h-27.95v-1.3h29.58v.85l-22.43,44.66h-1.56l22.36-44.2Z"/>
      <path class="cls-2" d="M1.17,300.98l20.61-19.96c7.02-6.83,8.12-10.47,8.12-13.78,0-5.53-4.94-10.27-12.03-10.27-6.7,0-11.31,3.9-14.17,9.17l-1.23-.71c3.05-5.66,8.12-9.75,15.47-9.75,8,0,13.39,5.2,13.39,11.44v.13c0,3.96-1.23,7.47-8.71,14.82l-19.11,18.46H31.98v1.3H1.17v-.84Z"/>
      <path class="cls-2" d="M36.07,294.48l1.17-.91c3.31,4.48,8.65,7.73,15.21,7.73,7.22,0,13.26-4.68,13.26-11.18v-.13c0-8-6.89-11.31-16.9-11.31h-1.56l-.46-.91,17.68-20.15h-25.94v-1.3h27.82v1.04l-17.55,20.02c11.25,0,18.33,4.03,18.33,12.54v.13c0,7.28-6.69,12.55-14.75,12.55-7.08,0-12.68-3.38-16.32-8.13Z"/>
    </g>
  </g>
</svg>