<?xml version="1.0" encoding="UTF-8"?>
<svg id="_Слой_2" data-name="Слой 2" xmlns="http://www.w3.org/2000/svg" viewBox="0 0 385.72 146.52">
  <g id="Layer_1" data-name="Layer 1">
    <g>
      <path d="M113.63,70.4c-.6,0-1.13-.02-1.6-.06-2.47-.43-4.2-1.13-5.18-2.11-.6-.77-.9-1.37-.9-1.79,0-.34,.15-.51,.45-.51,.34,0,.83,.28,1.47,.83,.26,.21,.52,.39,.8,.54,.28,.15,1.27,.22,2.98,.22,2.64,0,5.02-.37,7.14-1.12,2.11-.75,4.51-2.02,7.2-3.81,5.5-3.71,10.73-9.26,15.68-16.64,3.63-5.33,6.51-11.41,8.64-18.24,.81-2.52,1.35-4.66,1.63-6.43,.28-1.77,.42-4,.42-6.69v-3.71c-.04-1.07-.3-2.03-.77-2.88-1.28-2.86-3.86-4.29-7.74-4.29-2.39,0-4.86,.47-7.42,1.41,1.32,.3,1.98,.94,1.98,1.92,0,.38-.36,1.6-1.09,3.65-1.58,4.44-3.18,8.56-4.8,12.35-2.6,6.31-5.53,14.44-8.77,24.38-2.18,6.78-3.48,10.9-3.9,12.35-.21,.6-.66,.9-1.34,.9-.64,0-1.24-.19-1.79-.58-.55-.38-.83-.88-.83-1.47v-.13c1.24-6.74,3.41-14.85,6.53-24.32,3.11-9.47,6.21-17.32,9.28-23.55,1.32-2.43,2.3-4.03,2.94-4.8-5.97,2.82-10.52,7.25-13.63,13.31l-1.15,1.98,.77,.7c.34,.38,.51,.68,.51,.9,0,.3-.28,.49-.83,.58h-.13c-.51,0-1.02-.23-1.54-.7-.64-.64-.96-1.41-.96-2.3,0-1.66,.62-3.56,1.86-5.7C124.21,6.06,131.34,1.22,140.89,.06l.83-.06c2.22,0,4.54,.8,6.98,2.4,2.43,1.6,4.39,3.81,5.89,6.62,1.11,2.48,1.66,5.36,1.66,8.64,0,3.67-1.02,8.88-3.07,15.62-2.05,6.74-6.21,13.97-12.48,21.7-6.78,7.94-13.67,12.86-20.67,14.78-1.71,.43-3.84,.64-6.4,.64Z"/>
      <path d="M161.5,50.24h-.26c-.17,0-.49-.09-.96-.26l-.32-.13c-.85-.26-1.52-.62-1.98-1.09-1.49-1.32-2.24-3.16-2.24-5.5,0-.98,.24-2.36,.7-4.13s1.69-3.45,3.65-5.02c.98-.68,1.98-1.02,3.01-1.02,.85,0,1.55,.2,2.08,.61,.53,.41,.94,.61,1.22,.61s.6,.27,.96,.8c.36,.53,.66,1.17,.9,1.92,.23,.75,.45,1.26,.64,1.54,.19,.28,.52,.52,.99,.74,.85,.34,1.81,.51,2.88,.51,1.32,0,2.77-.26,4.35-.77,1.02-.34,1.69-.51,1.98-.51,.34,0,.66,.12,.96,.35,.3,.23,.45,.44,.45,.61,0,.13-.13,.3-.38,.51-.26,.21-1.13,.51-2.62,.9-1.24,.34-2.45,.51-3.65,.51-1.32,0-2.62-.21-3.9-.64l-1.02-.38c-.17,0-.3,.12-.38,.35-.09,.24-.19,.63-.32,1.18-.3,1.92-1.13,3.73-2.5,5.44-1.07,1.37-2.16,2.22-3.26,2.56l-.96,.32Zm-1.15-2.05c.64,0,1.54-.58,2.69-1.73,1.54-1.54,2.56-3.69,3.07-6.46,0-.13,.02-.23,.06-.32l.06-.96c-.04-.26-.16-.52-.35-.8-.19-.28-.36-.59-.51-.93-.15-.34-.22-.65-.22-.93s-.01-.47-.03-.58c-.02-.11-.12-.16-.29-.16-.43,0-1.07,.38-1.92,1.15-.98,.94-1.79,2.13-2.43,3.58-.73,1.71-1.09,3.48-1.09,5.31v1.09c0,.43,.07,.82,.22,1.18,.15,.36,.39,.54,.74,.54Z"/>
      <path d="M167.45,82.75c-.47,0-1-.15-1.6-.45l-.9-.51,.13-2.37c.73-7.13,3.54-16.94,8.45-29.44,2.9-7.34,5.27-12.31,7.1-14.91,.51-.77,.93-1.26,1.25-1.47,.32-.21,.69-.32,1.12-.32,.3,0,.62,.05,.96,.16,.34,.11,.63,.25,.86,.42,.23,.17,.46,.36,.67,.58l-1.6,3.26c-1.54,3.03-3.09,6.51-4.67,10.43-.68,1.79-1.02,2.77-1.02,2.94v.06c.09,0,.53-.79,1.34-2.37,1.54-2.94,3.26-5.82,5.18-8.64,3.24-4.82,5.48-7.23,6.72-7.23,.73,0,1.47,.38,2.24,1.15,.64,.55,1.02,1.1,1.15,1.63,.13,.53,.19,1.4,.19,2.59,0,1.79-.43,3.65-1.28,5.57-.26,.55-.38,.96-.38,1.22v.06c.3,0,2.39-1.43,6.27-4.29,2.69-1.96,4.2-3.03,4.54-3.2,.6-.38,1.15-.58,1.66-.58,.43,0,.75,.13,.96,.38,.08,.04,.13,.11,.13,.19l-.19,.32c-.21,.3-1.11,1.09-2.69,2.37-4.78,3.67-8.38,6.08-10.82,7.23-1.62,.77-2.91,1.49-3.87,2.18-.96,.68-1.97,1.02-3.04,1.02-.9,0-1.84-.26-2.82-.77l-1.47-.7c-2.77,4.48-5.18,8.94-7.23,13.38s-3.97,10.22-5.76,17.34c-.34,1.36-.58,2.17-.7,2.4s-.43,.35-.9,.35Zm17.02-34.56c.68-.04,1.21-.17,1.57-.38,.36-.21,.78-.6,1.25-1.15,.85-1.02,1.7-2.42,2.53-4.19s1.44-3.42,1.82-4.96c.17-.68,.26-1.22,.26-1.6,0-.47-.13-.7-.38-.7-.38,0-1.92,1.98-4.61,5.95-2.69,3.97-4.03,6.25-4.03,6.85,0,.13,.34,.19,1.02,.19h.58Z"/>
      <path d="M208.67,50.24h-.26c-.17,0-.49-.09-.96-.26l-.32-.13c-.85-.26-1.52-.62-1.98-1.09-1.49-1.32-2.24-3.16-2.24-5.5,0-.98,.24-2.36,.7-4.13s1.69-3.45,3.65-5.02c.98-.68,1.98-1.02,3.01-1.02,.85,0,1.55,.2,2.08,.61,.53,.41,.94,.61,1.22,.61s.6,.27,.96,.8c.36,.53,.66,1.17,.9,1.92,.23,.75,.45,1.26,.64,1.54,.19,.28,.52,.52,.99,.74,.85,.34,1.81,.51,2.88,.51,1.32,0,2.77-.26,4.35-.77,1.02-.34,1.69-.51,1.98-.51,.34,0,.66,.12,.96,.35,.3,.23,.45,.44,.45,.61,0,.13-.13,.3-.38,.51-.26,.21-1.13,.51-2.62,.9-1.24,.34-2.45,.51-3.65,.51-1.32,0-2.62-.21-3.9-.64l-1.02-.38c-.17,0-.3,.12-.38,.35-.09,.24-.19,.63-.32,1.18-.3,1.92-1.13,3.73-2.5,5.44-1.07,1.37-2.16,2.22-3.26,2.56l-.96,.32Zm-1.15-2.05c.64,0,1.54-.58,2.69-1.73,1.54-1.54,2.56-3.69,3.07-6.46,0-.13,.02-.23,.06-.32l.06-.96c-.04-.26-.16-.52-.35-.8-.19-.28-.36-.59-.51-.93-.15-.34-.22-.65-.22-.93s-.01-.47-.03-.58c-.02-.11-.12-.16-.29-.16-.43,0-1.07,.38-1.92,1.15-.98,.94-1.79,2.13-2.43,3.58-.73,1.71-1.09,3.48-1.09,5.31v1.09c0,.43,.07,.82,.22,1.18,.15,.36,.39,.54,.74,.54Z"/>
      <path d="M234.08,41.92c-.85,.64-1.96,1.56-3.33,2.75s-1.92,2.13-1.66,2.82c0,.34,.11,.51,.32,.51,1.24,0,3.84-1.37,7.81-4.1,2.35-1.66,4.48-3.11,6.4-4.35l.26-.19c.73-.47,1.3-.82,1.73-1.06,.43-.23,.77-.35,1.02-.35,.13,0,.29,.04,.48,.13,.19,.09,.35,.19,.48,.32,.13,.13,.19,.24,.19,.32,0,.21-.68,.79-2.05,1.73l-3.01,2.11-3.01,2.18c-4.4,3.33-7.62,4.99-9.66,4.99-.81,0-1.54-.2-2.18-.61-.64-.41-1.08-.86-1.31-1.38-.24-.51-.27-1.27-.1-2.27,.17-1,.82-2.2,1.95-3.58,1.13-1.39,2.91-2.55,5.34-3.49,1.15-.55,2.04-1,2.66-1.34,.62-.34,.97-.87,1.06-1.6-.17-.47-.5-.67-.99-.61-.49,.06-.95,.17-1.38,.32-.43,.15-.79,.27-1.09,.35-.64,.34-1.38,.82-2.21,1.44-.83,.62-1.61,1.21-2.34,1.76-.73,.55-1.18,.98-1.38,1.28-.19,.3-.41,.53-.64,.7s-.39,.26-.48,.26c-.21,0-.46-.06-.74-.19s-.53-.35-.77-.67c-.23-.32-.35-.59-.35-.8,0-1.24,1.04-2.62,3.14-4.16,2.52-1.88,4.86-2.82,7.04-2.82,1.62,0,2.84,.7,3.65,2.11,.38,.51,.58,1.11,.58,1.79,.04,1.07-.28,1.69-.96,1.86-.98,.64-1.76,1.28-2.34,1.92-.58,.64-1.29,1.28-2.14,1.92Z"/>
      <path d="M248.86,49.98c-.68,0-1.33-.2-1.95-.61-.62-.41-1.12-.99-1.5-1.76-.38-.77-.58-1.56-.58-2.37,0-1.88,.51-4.1,1.54-6.66,1.49-3.71,2.94-5.57,4.35-5.57,.13,0,.37,.01,.74,.03,.36,.02,.78,.2,1.25,.54,.08,.04,.18,.11,.29,.19,.11,.09,.18,.17,.22,.26,.04,.09,.06,.19,.06,.32,0,.3-.43,1.45-1.28,3.46-.3,.43-.81,1.69-1.54,3.78-1.07,2.9-1.6,4.67-1.6,5.31,0,.17,.04,.26,.13,.26,.04,0,.15-.04,.32-.13,.17-.08,.57-.46,1.18-1.12,.62-.66,1.63-1.85,3.04-3.55,1.41-1.71,2.76-3.38,4.06-5.02,1.3-1.64,2.1-2.67,2.4-3.07,.3-.41,.7-.61,1.22-.61s1.02,.17,1.54,.51l.64,.58-1.15,3.71c-1.62,4.74-2.43,7.64-2.43,8.7,0,.34,.06,.51,.19,.51,.73,0,3.63-2.07,8.7-6.21,1.45-1.24,2.6-2.17,3.46-2.78,.85-.62,1.49-.93,1.92-.93,.34,0,.6,.13,.77,.38l.06,.13c0,.13-.07,.3-.22,.51-.15,.21-.53,.62-1.15,1.22-.62,.6-1.5,1.41-2.66,2.43l-2.24,2.05c-1.66,1.49-2.82,2.5-3.46,3.01-2.01,1.58-3.78,2.37-5.31,2.37-.73,0-1.44-.21-2.14-.64s-1.18-.9-1.44-1.41c-.26-.51-.38-1.11-.38-1.79l.06-2.43-2.56,3.33c-1.58,2.05-3.09,3.07-4.54,3.07Z"/>
      <path d="M276.19,50.05c-.85,0-1.66-.19-2.43-.58-2.05-1.11-3.07-2.82-3.07-5.12,0-1.92,.75-4.1,2.24-6.53,1.79-3.03,3.56-4.54,5.31-4.54l.26,.13c2.35,.51,3.52,1.79,3.52,3.84,0,.85-.28,1.92-.83,3.2-.38,.9-.82,1.59-1.31,2.08-.49,.49-1.18,.74-2.08,.74-.6,0-1.15-.15-1.66-.45-.3-.21-.51-.32-.64-.32s-.24,.09-.32,.26c-.6,1.07-.9,2.28-.9,3.65,0,1.24,.3,1.86,.9,1.86,.26,0,.77-.13,1.54-.38,2.86-.85,6.25-2.79,10.18-5.82,2.39-1.75,3.92-2.96,4.61-3.65,.51-.51,.96-.77,1.34-.77,.3,0,.58,.15,.83,.45,.13,.17,.19,.34,.19,.51,0,.13-.08,.32-.22,.58s-.67,.73-1.57,1.41l-4.99,4.03c-.64,.47-1.3,.96-1.98,1.47-.68,.51-1.3,.94-1.86,1.28-2.94,1.79-5.29,2.69-7.04,2.69Zm.64-8.38c.34,0,.77-.34,1.28-1.02,1.02-1.37,1.54-2.71,1.54-4.03v-.96l-1.02,.9c-.47,.47-1.02,1.34-1.66,2.62l-.13,.19c-.26,.51-.45,.92-.58,1.22-.13,.3-.19,.51-.19,.64,0,.09,.04,.15,.13,.19,.21,.17,.43,.26,.64,.26Z"/>
      <path d="M2.5,145.75c-.47,0-1-.15-1.6-.45l-.9-.51,.13-2.37c.73-7.13,3.54-16.94,8.45-29.44,2.9-7.34,5.27-12.31,7.1-14.91,.51-.77,.93-1.26,1.25-1.47,.32-.21,.69-.32,1.12-.32,.3,0,.62,.05,.96,.16,.34,.11,.63,.25,.86,.42,.23,.17,.46,.36,.67,.58l-1.6,3.26c-1.54,3.03-3.09,6.51-4.67,10.43-.68,1.79-1.02,2.77-1.02,2.94v.06c.09,0,.53-.79,1.34-2.37,1.54-2.94,3.26-5.82,5.18-8.64,3.24-4.82,5.48-7.23,6.72-7.23,.73,0,1.47,.38,2.24,1.15,.64,.55,1.02,1.1,1.15,1.63,.13,.53,.19,1.4,.19,2.59,0,1.79-.43,3.65-1.28,5.57-.26,.55-.38,.96-.38,1.22v.06c.3,0,2.39-1.43,6.27-4.29,2.69-1.96,4.2-3.03,4.54-3.2,.6-.38,1.15-.58,1.66-.58,.43,0,.75,.13,.96,.38,.08,.04,.13,.11,.13,.19l-.19,.32c-.21,.3-1.11,1.09-2.69,2.37-4.78,3.67-8.38,6.08-10.82,7.23-1.62,.77-2.91,1.49-3.87,2.18-.96,.68-1.97,1.02-3.04,1.02-.9,0-1.84-.26-2.82-.77l-1.47-.7c-2.77,4.48-5.18,8.94-7.23,13.38s-3.97,10.22-5.76,17.34c-.34,1.36-.58,2.17-.7,2.4s-.43,.35-.9,.35Zm17.02-34.56c.68-.04,1.21-.17,1.57-.38,.36-.21,.78-.6,1.25-1.15,.85-1.02,1.7-2.42,2.53-4.19s1.44-3.42,1.82-4.96c.17-.68,.26-1.22,.26-1.6,0-.47-.13-.7-.38-.7-.38,0-1.92,1.98-4.61,5.95-2.69,3.97-4.03,6.25-4.03,6.85,0,.13,.34,.19,1.02,.19h.58Z"/>
      <path d="M43.71,113.24h-.26c-.17,0-.49-.09-.96-.26l-.32-.13c-.85-.26-1.52-.62-1.98-1.09-1.49-1.32-2.24-3.16-2.24-5.5,0-.98,.24-2.36,.7-4.13s1.69-3.45,3.65-5.02c.98-.68,1.98-1.02,3.01-1.02,.85,0,1.55,.2,2.08,.61,.53,.41,.94,.61,1.22,.61s.6,.27,.96,.8c.36,.53,.66,1.17,.9,1.92,.23,.75,.45,1.26,.64,1.54,.19,.28,.52,.52,.99,.74,.85,.34,1.81,.51,2.88,.51,1.32,0,2.77-.26,4.35-.77,1.02-.34,1.69-.51,1.98-.51,.34,0,.66,.12,.96,.35,.3,.23,.45,.44,.45,.61,0,.13-.13,.3-.38,.51-.26,.21-1.13,.51-2.62,.9-1.24,.34-2.45,.51-3.65,.51-1.32,0-2.62-.21-3.9-.64l-1.02-.38c-.17,0-.3,.12-.38,.35-.09,.24-.19,.63-.32,1.18-.3,1.92-1.13,3.73-2.5,5.44-1.07,1.37-2.16,2.22-3.26,2.56l-.96,.32Zm-1.15-2.05c.64,0,1.54-.58,2.69-1.73,1.54-1.54,2.56-3.69,3.07-6.46,0-.13,.02-.23,.06-.32l.06-.96c-.04-.26-.16-.52-.35-.8-.19-.28-.36-.59-.51-.93-.15-.34-.22-.65-.22-.93s-.01-.47-.03-.58c-.02-.11-.12-.16-.29-.16-.43,0-1.07,.38-1.92,1.15-.98,.94-1.79,2.13-2.43,3.58-.73,1.71-1.09,3.48-1.09,5.31v1.09c0,.43,.07,.82,.22,1.18,.15,.36,.39,.54,.74,.54Z"/>
      <path d="M49.28,146.14c-.94,0-1.73-.17-2.37-.51-2-1.15-3.01-2.69-3.01-4.61,0-1.66,.79-3.67,2.37-6.02,2.22-3.24,7.85-8.51,16.9-15.81l1.79-1.47c.3-.3,.7-1.13,1.22-2.5,.3-.85,1.15-2.96,2.56-6.34,1.41-3.37,2.11-5.14,2.11-5.31-.21,0-1.22,1.13-3.01,3.39-2.39,2.94-4.12,4.82-5.18,5.63-.64,.51-1.24,.77-1.79,.77-.38,0-.77-.12-1.15-.35-.38-.24-.74-.66-1.06-1.28-.32-.62-.48-1.21-.48-1.76,0-1.28,.36-2.88,1.09-4.8s1.62-3.67,2.69-5.25c1.19-1.88,2.5-2.82,3.9-2.82,.47,0,1.13,.21,1.98,.64,.85,.43,1.56,.92,2.11,1.47l.83,.7,2.94-2.62c.43-.34,.75-.64,.96-.9,.21-.26,.45-.38,.7-.38,.17,0,.41,.09,.7,.26,.21,0,.55,.17,1.02,.51,.26,.26,.38,.47,.38,.64,0,.6-.28,1.62-.83,3.07l-1.92,5.18c-1.32,3.67-1.98,5.59-1.98,5.76,.04,0,.52-.36,1.44-1.09,.92-.72,2.03-1.6,3.33-2.62,1.3-1.02,2.55-2.03,3.74-3.01,2.26-1.88,3.83-3.09,4.7-3.65,.87-.55,1.5-.83,1.89-.83l.19,.06c.55,.13,.83,.34,.83,.64,0,.13-.13,.37-.38,.74-.26,.36-1.34,1.29-3.26,2.78l-5.25,4.1c-1.75,1.41-4.8,3.8-9.15,7.17l-4.22,10.3c-2.9,6.66-5.55,11.52-7.94,14.59-2.82,3.67-5.95,5.5-9.41,5.5Zm-1.6-2.18c.51,0,1.17-.19,1.98-.58,2.65-1.2,5.36-4.33,8.13-9.41,.77-1.54,1.79-3.67,3.07-6.4,1.54-3.29,2.3-5.06,2.3-5.31-.47,.08-2.43,1.66-5.89,4.74-4.74,4.18-7.87,7.49-9.41,9.92-1.02,1.62-1.54,3.18-1.54,4.67,0,1.58,.45,2.37,1.34,2.37Zm13.89-33.6c.26-.17,.51-.35,.77-.54,.26-.19,1.15-1.21,2.69-3.04l1.41-1.73c2.35-2.82,3.52-4.29,3.52-4.42,0-.17-.34-.45-1.02-.83-.47-.17-.83-.26-1.09-.26h-.22c-.11,0-.2,.02-.29,.06-.55,.34-1.29,1.34-2.21,3.01-.92,1.66-1.85,3.67-2.78,6.02l-.77,1.73Z"/>
      <path d="M99.39,100.5c.38-.81,.85-1.64,1.41-2.5,.17-.21,.32-.43,.45-.64,.98-1.37,1.81-2.05,2.5-2.05,.51,0,1.07,.32,1.66,.96l.96,.9c-1.92,2.43-3.26,4.36-4.03,5.79-.77,1.43-1.21,2.46-1.31,3.1-.11,.64-.14,1.2-.1,1.66,.04,.47,.12,.78,.22,.93s.31,.22,.61,.22c1.88,0,5.23-2.26,10.05-6.78,1.58-1.41,2.58-2.11,3.01-2.11,.6,0,.9,.19,.9,.58,0,.6-.79,1.64-2.37,3.14-4.57,4.48-8.13,6.72-10.69,6.72s-4.14-1.13-4.61-3.39c-.04-.64-.04-1.3,0-1.98-.09,.04-.19,.11-.32,.19-1.37,1.15-2.86,1.81-4.48,1.98-1.28,.13-2.99-.11-5.12-.7-.21,.55-.38,1-.51,1.34-.09,.34-.19,.66-.32,.96v.06l-.13,.32c-.21,.64-.45,1.24-.7,1.79-.17,.47-.46,.94-.86,1.41-.41,.47-.65,.7-.74,.7-.34,0-.77-.21-1.28-.64l-.7-.77,.7-3.07c.13-.47,.26-.92,.38-1.34,.38-2.09,1.13-4.31,2.24-6.66,1.11-2.39,1.92-3.73,2.43-4.03,.21-.13,.45-.19,.7-.19,.81,0,1.51,.3,2.11,.9,.21,.21,.32,.41,.32,.58,0,.21-.21,.79-.64,1.73-.13,.13-.64,1.28-1.54,3.46-.09,.17-.15,.32-.19,.45,2.13,.6,4.07,.68,5.82,.26,1.28-.85,2.67-1.94,4.16-3.26Z"/>
      <path d="M122.56,107.67c-2.6,2.56-4.71,4.12-6.34,4.67-.21,.09-.45,.19-.7,.32-.73,.3-1.43,.36-2.11,.19-.38-.13-.7-.3-.96-.51-.17-.04-.32-.13-.45-.26-.64-.38-1.08-.83-1.31-1.34-.23-.51-.35-1.24-.35-2.18,0-1.36,.37-2.94,1.12-4.74s1.74-3.51,2.98-5.15c1.24-1.64,2.2-2.46,2.88-2.46,.51,0,1.07,.32,1.66,.96l.96,.9c-.73,.9-1.75,2.22-3.07,3.97l.45-.06,.19,.06c.13,0,.32,.11,.58,.32l.19,.13c.51,.3,.87,.64,1.09,1.02,.77,1.11,1.04,2.13,.83,3.07-.04,.13-.09,.28-.13,.45,1.58-1.32,3.07-3.14,4.48-5.44,.43-.68,.87-1.32,1.34-1.92,.3-.47,.6-.92,.9-1.34,.98-1.37,1.81-2.05,2.5-2.05,.51,0,1.07,.32,1.66,.96l.96,.9c-2.3,2.94-4.18,6.1-5.63,9.47-.6,1.41-.9,2.37-.9,2.88,0,.34,.11,.51,.32,.51,1.24,0,3.84-1.37,7.81-4.1,2.35-1.66,4.48-3.11,6.4-4.35l.26-.19c.72-.47,1.3-.82,1.73-1.06,.43-.23,.77-.35,1.02-.35,.13,0,.29,.04,.48,.13,.19,.09,.35,.19,.48,.32s.19,.24,.19,.32c0,.21-.68,.79-2.05,1.73l-3.01,2.11-3.01,2.18c-4.4,3.33-7.62,4.99-9.66,4.99-.81,0-1.54-.2-2.18-.61-.64-.41-1.08-.86-1.31-1.38-.23-.51-.35-1.24-.35-2.18,0-.3,.02-.6,.06-.9Zm-5.18-2.75c-.34-.08-.85,.09-1.54,.51-.98,.55-1.63,1.27-1.95,2.14-.32,.88-.5,1.45-.54,1.73-.04,.28-.08,.5-.1,.67-.02,.17-.02,.29,0,.35,.02,.06,.07,.1,.16,.1,.21,.09,.62,.06,1.22-.06,.6-.34,1.15-.83,1.66-1.47,.55-.72,.96-1.56,1.22-2.5,.04-.13,.08-.3,.13-.51,.04-.21,.05-.42,.03-.61-.02-.19-.12-.31-.29-.35Z"/>
      <path d="M144.96,113.05c-.85,0-1.66-.19-2.43-.58-2.05-1.11-3.07-2.82-3.07-5.12,0-1.92,.75-4.1,2.24-6.53,1.79-3.03,3.56-4.54,5.31-4.54l.26,.13c2.35,.51,3.52,1.79,3.52,3.84,0,.85-.28,1.92-.83,3.2-.38,.9-.82,1.59-1.31,2.08-.49,.49-1.18,.74-2.08,.74-.6,0-1.15-.15-1.66-.45-.3-.21-.51-.32-.64-.32s-.24,.09-.32,.26c-.6,1.07-.9,2.28-.9,3.65,0,1.24,.3,1.86,.9,1.86,.26,0,.77-.13,1.54-.38,2.86-.85,6.25-2.79,10.18-5.82,2.39-1.75,3.92-2.96,4.61-3.65,.51-.51,.96-.77,1.34-.77,.3,0,.58,.15,.83,.45,.13,.17,.19,.34,.19,.51,0,.13-.08,.32-.22,.58s-.67,.73-1.57,1.41l-4.99,4.03c-.64,.47-1.3,.96-1.98,1.47-.68,.51-1.3,.94-1.86,1.28-2.94,1.79-5.29,2.69-7.04,2.69Zm.64-8.38c.34,0,.77-.34,1.28-1.02,1.02-1.37,1.54-2.71,1.54-4.03v-.96l-1.02,.9c-.47,.47-1.02,1.34-1.66,2.62l-.13,.19c-.26,.51-.45,.92-.58,1.22-.13,.3-.19,.51-.19,.64,0,.09,.04,.15,.13,.19,.21,.17,.43,.26,.64,.26Z"/>
      <path d="M178.81,112.98c-.68,0-1.33-.2-1.95-.61-.62-.41-1.12-.99-1.5-1.76-.38-.77-.58-1.56-.58-2.37,0-1.88,.51-4.1,1.54-6.66,1.49-3.71,2.94-5.57,4.35-5.57,.13,0,.37,.01,.74,.03,.36,.02,.78,.2,1.25,.54,.08,.04,.18,.11,.29,.19,.11,.09,.18,.17,.22,.26,.04,.09,.06,.19,.06,.32,0,.3-.43,1.45-1.28,3.46-.3,.43-.81,1.69-1.54,3.78-1.07,2.9-1.6,4.67-1.6,5.31,0,.17,.04,.26,.13,.26,.04,0,.15-.04,.32-.13,.17-.08,.57-.46,1.18-1.12,.62-.66,1.63-1.85,3.04-3.55,1.41-1.71,2.76-3.38,4.06-5.02,1.3-1.64,2.1-2.67,2.4-3.07,.3-.41,.7-.61,1.22-.61s1.02,.17,1.54,.51l.64,.58-1.15,3.71c-1.62,4.74-2.43,7.64-2.43,8.7,0,.34,.06,.51,.19,.51,.73,0,3.63-2.07,8.7-6.21,1.45-1.24,2.6-2.17,3.46-2.78,.85-.62,1.49-.93,1.92-.93,.34,0,.6,.13,.77,.38l.06,.13c0,.13-.07,.3-.22,.51-.15,.21-.53,.62-1.15,1.22-.62,.6-1.5,1.41-2.66,2.43l-2.24,2.05c-1.66,1.49-2.82,2.5-3.46,3.01-2.01,1.58-3.78,2.37-5.31,2.37-.73,0-1.44-.21-2.14-.64s-1.18-.9-1.44-1.41c-.26-.51-.38-1.11-.38-1.79l.06-2.43-2.56,3.33c-1.58,2.05-3.09,3.07-4.54,3.07Z"/>
      <path d="M207.04,146.14c-.94,0-1.73-.17-2.37-.51-2-1.15-3.01-2.69-3.01-4.61,0-1.66,.79-3.67,2.37-6.02,2.22-3.24,7.85-8.51,16.9-15.81l1.79-1.47c.3-.3,.7-1.13,1.22-2.5,.3-.85,1.15-2.96,2.56-6.34,1.41-3.37,2.11-5.14,2.11-5.31-.21,0-1.22,1.13-3.01,3.39-2.39,2.94-4.12,4.82-5.18,5.63-.64,.51-1.24,.77-1.79,.77-.38,0-.77-.12-1.15-.35-.38-.24-.74-.66-1.06-1.28-.32-.62-.48-1.21-.48-1.76,0-1.28,.36-2.88,1.09-4.8s1.62-3.67,2.69-5.25c1.19-1.88,2.5-2.82,3.9-2.82,.47,0,1.13,.21,1.98,.64,.85,.43,1.56,.92,2.11,1.47l.83,.7,2.94-2.62c.43-.34,.75-.64,.96-.9,.21-.26,.45-.38,.7-.38,.17,0,.41,.09,.7,.26,.21,0,.55,.17,1.02,.51,.26,.26,.38,.47,.38,.64,0,.6-.28,1.62-.83,3.07l-1.92,5.18c-1.32,3.67-1.98,5.59-1.98,5.76,.04,0,.52-.36,1.44-1.09,.92-.72,2.03-1.6,3.33-2.62,1.3-1.02,2.55-2.03,3.74-3.01,2.26-1.88,3.83-3.09,4.7-3.65,.87-.55,1.5-.83,1.89-.83l.19,.06c.55,.13,.83,.34,.83,.64,0,.13-.13,.37-.38,.74-.26,.36-1.34,1.29-3.26,2.78l-5.25,4.1c-1.75,1.41-4.8,3.8-9.15,7.17l-4.22,10.3c-2.9,6.66-5.55,11.52-7.94,14.59-2.82,3.67-5.95,5.5-9.41,5.5Zm-1.6-2.18c.51,0,1.17-.19,1.98-.58,2.65-1.2,5.36-4.33,8.13-9.41,.77-1.54,1.79-3.67,3.07-6.4,1.54-3.29,2.3-5.06,2.3-5.31-.47,.08-2.43,1.66-5.89,4.74-4.74,4.18-7.87,7.49-9.41,9.92-1.02,1.62-1.54,3.18-1.54,4.67,0,1.58,.45,2.37,1.34,2.37Zm13.89-33.6c.26-.17,.51-.35,.77-.54,.26-.19,1.15-1.21,2.69-3.04l1.41-1.73c2.35-2.82,3.52-4.29,3.52-4.42,0-.17-.34-.45-1.02-.83-.47-.17-.83-.26-1.09-.26h-.22c-.11,0-.2,.02-.29,.06-.55,.34-1.29,1.34-2.21,3.01-.92,1.66-1.85,3.67-2.78,6.02l-.77,1.73Z"/>
      <path d="M232.7,145.75c-.47,0-1-.15-1.6-.45l-.9-.51,.13-2.37c.73-7.13,3.54-16.94,8.45-29.44,2.9-7.34,5.27-12.31,7.1-14.91,.51-.77,.93-1.26,1.25-1.47,.32-.21,.69-.32,1.12-.32,.3,0,.62,.05,.96,.16,.34,.11,.63,.25,.86,.42,.23,.17,.46,.36,.67,.58l-1.6,3.26c-1.54,3.03-3.09,6.51-4.67,10.43-.68,1.79-1.02,2.77-1.02,2.94v.06c.09,0,.53-.79,1.34-2.37,1.54-2.94,3.26-5.82,5.18-8.64,3.24-4.82,5.48-7.23,6.72-7.23,.73,0,1.47,.38,2.24,1.15,.64,.55,1.02,1.1,1.15,1.63,.13,.53,.19,1.4,.19,2.59,0,1.79-.43,3.65-1.28,5.57-.26,.55-.38,.96-.38,1.22v.06c.3,0,2.39-1.43,6.27-4.29,2.69-1.96,4.2-3.03,4.54-3.2,.6-.38,1.15-.58,1.66-.58,.43,0,.75,.13,.96,.38,.08,.04,.13,.11,.13,.19l-.19,.32c-.21,.3-1.11,1.09-2.69,2.37-4.78,3.67-8.38,6.08-10.82,7.23-1.62,.77-2.91,1.49-3.87,2.18-.96,.68-1.97,1.02-3.04,1.02-.9,0-1.84-.26-2.82-.77l-1.47-.7c-2.77,4.48-5.18,8.94-7.23,13.38s-3.97,10.22-5.76,17.34c-.34,1.36-.58,2.17-.7,2.4s-.43,.35-.9,.35Zm17.02-34.56c.68-.04,1.21-.17,1.57-.38,.36-.21,.78-.6,1.25-1.15,.85-1.02,1.7-2.42,2.53-4.19s1.44-3.42,1.82-4.96c.17-.68,.26-1.22,.26-1.6,0-.47-.13-.7-.38-.7-.38,0-1.92,1.98-4.61,5.95-2.69,3.97-4.03,6.25-4.03,6.85,0,.13,.34,.19,1.02,.19h.58Z"/>
      <path d="M259.9,146.52c-.51,0-1.04-.04-1.6-.13-3.07-.9-4.61-2.3-4.61-4.22,0-3.07,5.87-9.94,17.6-20.61,2.01-1.79,3.48-3.17,4.42-4.13s1.64-1.93,2.11-2.91c.47-.98,1.02-2.37,1.66-4.16,.55-1.36,1.07-2.75,1.54-4.16l-3.26,3.14c-1.66,1.66-2.99,2.77-3.97,3.33-.68,.38-1.34,.58-1.98,.58-.34,0-.66-.04-.96-.13-1.07-.26-1.93-.81-2.59-1.66-.66-.85-.99-1.86-.99-3.01,0-1.37,.32-3.05,.96-5.06,1.36-4.27,2.79-6.4,4.29-6.4,.51,0,1.04,.15,1.6,.45,.55,.3,.83,.68,.83,1.15-.04,.47-.34,1.24-.9,2.3-.73,1.37-1.37,2.87-1.92,4.51-.55,1.64-.9,3.02-1.02,4.13l-.26,1.92,1.34-.7c.98-.55,2.3-1.62,3.97-3.2,1.66-1.58,3.25-3.25,4.77-5.02,1.51-1.77,2.57-3.21,3.17-4.32,.51-1.19,1.02-1.79,1.54-1.79,.3,0,.53,.05,.7,.16,.17,.11,.34,.2,.51,.29,.26,.13,.44,.26,.54,.38,.11,.13,.16,.34,.16,.64l-.06,1.34c0,1.66-.49,3.9-1.47,6.72-.34,1.07-.6,1.94-.77,2.62-.17,.68-.26,1.09-.26,1.22,.04,0,.53-.33,1.47-.99,.94-.66,2.05-1.48,3.33-2.46,3.41-2.69,5.87-4.54,7.36-5.57,1.15-.77,1.92-1.15,2.3-1.15,.3,0,.5,.13,.61,.38,.11,.26,.16,.43,.16,.51s-.35,.45-1.06,1.09-1.59,1.37-2.66,2.18c-4.86,3.63-9.2,6.93-12.99,9.92l-1.92,4.67c-1.66,4.01-3.47,7.87-5.41,11.58-1.94,3.71-3.72,6.76-5.34,9.15-3.58,4.95-7.23,7.42-10.94,7.42Zm-1.92-2.11c.68,0,1.54-.3,2.56-.9,1.83-1.15,3.61-2.92,5.31-5.31,1.71-2.39,3.73-5.93,6.08-10.62,1.96-4.01,2.94-6.14,2.94-6.4-.13,0-.83,.64-2.11,1.92-4.57,4.48-7.81,7.7-9.73,9.66-4.48,4.61-6.72,7.96-6.72,10.05,0,.47,.15,.85,.45,1.15,.3,.3,.7,.45,1.22,.45Z"/>
      <path d="M284.47,144.41c-.9,0-1.81-.38-2.75-1.15-.55-.47-.83-1.13-.83-1.98,0-1.96,1.54-4.89,4.61-8.77,1.71-2.09,4.04-4.64,7.01-7.65s5.34-5.24,7.14-6.69c1.37-1.07,2.05-1.96,2.05-2.69,0-.9-.85-1.34-2.56-1.34h-1.09c-.64,0-1.39,.17-2.24,.51-.51,.26-.9,.38-1.15,.38-.21,0-.5-.11-.86-.32-.36-.21-.54-.47-.54-.77,0-.47,.56-1,1.66-1.6,3.58-2.05,6.68-4.35,9.28-6.91,2.6-2.56,4.18-4.88,4.74-6.98l.26-.9c-.38,.09-.77,.17-1.15,.26-.38,.09-.79,.2-1.22,.35-.43,.15-.79,.27-1.09,.35-.64,.34-1.38,.82-2.21,1.44-.83,.62-1.61,1.25-2.34,1.89-.73,.64-1.18,1.11-1.38,1.41-.19,.3-.4,.53-.61,.7-.21,.17-.36,.26-.45,.26-.21,0-.47-.11-.77-.32-.3-.21-.57-.48-.8-.8-.23-.32-.35-.59-.35-.8,0-1.24,1.04-2.62,3.14-4.16,2.52-1.88,4.86-2.82,7.04-2.82,1.62,0,2.84,.7,3.65,2.11,.38,.51,.58,1.11,.58,1.79,0,1.2-.58,2.69-1.73,4.48-1.79,2.94-4.22,5.4-7.3,7.36l-1.98,1.09c.34,.17,.65,.32,.93,.45,.28,.13,.55,.31,.83,.54,.28,.23,.82,.8,1.63,1.7l2.11-1.79c1.83-1.58,4.02-3.31,6.56-5.18,2.54-1.88,4.83-3.52,6.88-4.93,2.05-1.41,3.18-2.11,3.39-2.11,.26,0,.5,.12,.74,.35,.23,.24,.35,.48,.35,.74,0,.04-.14,.21-.42,.51-.28,.3-.63,.6-1.06,.9-2.99,2.09-6.78,4.93-11.39,8.51l-5.95,4.8c0,3.92-.04,6.27-.13,7.04-.09,.77-.32,1.68-.7,2.75-3.2,8.49-8.34,14.14-15.42,16.96-2,.68-3.37,1.02-4.1,1.02Zm-1.02-2.24c.13,0,.43-.09,.9-.26,1.37-.43,2.75-1.08,4.16-1.95,1.41-.88,3.03-2.4,4.86-4.58,2.9-3.37,5.03-6.76,6.4-10.18,1.15-2.82,1.73-4.59,1.73-5.31v-.13c-.09,0-.62,.42-1.6,1.25-.98,.83-2.13,1.91-3.46,3.23-6.91,6.91-11.14,12.2-12.67,15.87-.34,.77-.51,1.34-.51,1.73,0,.21,.06,.32,.19,.32Z"/>
      <path d="M328.89,107.93c.47-.3,.98-.64,1.54-1.02,2.35-1.66,4.48-3.11,6.4-4.35l.26-.19c.72-.47,1.3-.82,1.73-1.06,.43-.23,.77-.35,1.02-.35,.13,0,.29,.04,.48,.13,.19,.09,.35,.19,.48,.32s.19,.24,.19,.32c0,.21-.68,.79-2.05,1.73l-3.01,2.11-3.01,2.18c-3.12,2.39-5.65,3.93-7.62,4.61-.21,.09-.45,.19-.7,.32-.73,.3-1.43,.36-2.11,.19-.38-.13-.7-.3-.96-.51-.17-.04-.32-.13-.45-.26-.64-.38-1.08-.83-1.31-1.34-.23-.51-.35-1.24-.35-2.18,0-1.36,.37-2.94,1.12-4.74s1.73-3.51,2.94-5.15c1.22-1.64,2.16-2.46,2.85-2.46,.51,0,1.07,.32,1.66,.96l.96,.9c-.73,.9-1.73,2.22-3.01,3.97l.45-.06,.19,.06c.13,0,.32,.11,.58,.32l.19,.13c.51,.3,.87,.64,1.09,1.02,.77,1.11,.96,2.43,.58,3.97-.04,.13-.09,.28-.13,.45Zm-2.43-3.01c-.34-.08-.85,.09-1.54,.51-.98,.55-1.63,1.27-1.95,2.14-.32,.88-.5,1.45-.54,1.73-.04,.28-.08,.5-.1,.67-.02,.17-.02,.29,0,.35,.02,.06,.07,.1,.16,.1,.21,.09,.62,.06,1.22-.06,.6-.34,1.15-.83,1.66-1.47,.55-.72,.96-1.56,1.22-2.5,.04-.13,.08-.3,.13-.51,.04-.21,.05-.42,.03-.61-.02-.19-.12-.31-.29-.35Z"/>
      <path d="M348.73,106.07c-7.72,4.82-11.86,7.3-12.42,7.42h-.19c-.17,0-.36-.04-.58-.13-.21-.09-.38-.18-.51-.29-.13-.11-.19-.18-.19-.22-.3-.72-.19-2.19,.32-4.38,.51-2.2,1.47-4.3,2.88-6.3,1.45-1.02,1.26,.6-.58,4.86-.77,2.52-.38,3.5,1.15,2.94l5.89-3.01-.51-.32-.19-.19c-.64-.38-1.09-.81-1.34-1.28-.9-1.32-1.11-2.9-.64-4.74,.21-.81,.68-1.86,1.41-3.14s2.03-2.35,3.9-3.2c.94-.3,1.79-.36,2.56-.19,.68,.21,1.19,.53,1.54,.96,.34,.43,.62,.66,.83,.7,.21,.04,.41,.3,.58,.77,0,.04,.02,.09,.06,.13,.68-.77,1.28-1.15,1.79-1.15s1.07,.32,1.66,.96l.96,.9c-1.92,2.43-3.26,4.36-4.03,5.79-.77,1.43-1.21,2.46-1.31,3.1-.11,.64-.14,1.2-.1,1.66,.04,.47,.12,.78,.22,.93s.31,.22,.61,.22c1.88,0,5.23-2.26,10.05-6.78,1.58-1.41,2.58-2.11,3.01-2.11,.6,0,.9,.19,.9,.58,0,.6-.79,1.64-2.37,3.14-4.57,4.48-8.13,6.72-10.69,6.72s-4.14-1.13-4.61-3.39c-.04-.3-.06-.62-.06-.96Zm-3.33-2.43c.38,.09,1.02-.13,1.92-.64,1.15-.68,2.09-1.81,2.82-3.39l.13-.19,.19-.58c0-.17-.03-.35-.1-.54-.06-.19-.12-.41-.16-.64-.04-.23-.04-.44,0-.61,.04-.17,.07-.29,.1-.35,.02-.06-.05-.1-.22-.1-.21-.08-.64,.02-1.28,.32-.73,.43-1.41,1.05-2.05,1.86-.73,.85-1.24,1.86-1.54,3.01,0,.17-.03,.38-.1,.64-.06,.26-.09,.5-.06,.74,.02,.23,.14,.39,.35,.48Z"/>
      <path d="M367.54,113.82c-.81,0-1.4-.19-1.76-.58-.36-.38-.54-.75-.54-1.09,0-.3,.13-.87,.38-1.73,.17-.51,.31-.88,.42-1.12,.11-.23,.26-.37,.45-.42,.19-.04,.46-.06,.8-.06,.47,0,1.07,.15,1.79,.45,.43,.34,.66,.66,.7,.96l-.06,1.02c-.13,1.07-.34,1.76-.64,2.08-.3,.32-.81,.48-1.54,.48Zm3.26-8.19c-.34,0-.85-.17-1.54-.51-.51-.21-.77-.64-.77-1.28,0-1.62,1.04-5.46,3.14-11.52,2.09-6.06,4.78-12.97,8.06-20.74l.13-.32c.51-1.11,.91-1.99,1.18-2.66,.28-.66,.51-1.14,.7-1.44,.19-.3,.35-.48,.48-.54,.13-.06,.32-.1,.58-.1,.6,0,1.24,.16,1.92,.48,.68,.32,1.02,.67,1.02,1.06l-.06,.45c-.04,.77-1.56,4.71-4.54,11.84-1.49,3.58-2.65,6.42-3.46,8.51-1.41,3.5-2.6,6.94-3.58,10.34-.98,3.39-1.75,5.37-2.3,5.92-.3,.34-.62,.51-.96,.51Z"/>
    </g>
  </g>
</svg>