<?xml version="1.0" encoding="UTF-8"?>
<svg id="_Слой_2" data-name="Слой 2" xmlns="http://www.w3.org/2000/svg" viewBox="0 0 350.2 110">
  <g id="Layer_1" data-name="Layer 1">
    <g>
      <path d="M12,110c-.93,0-1.77-.03-2.5-.1-3.87-.67-6.57-1.77-8.1-3.3-.93-1.2-1.4-2.13-1.4-2.8,0-.53,.23-.8,.7-.8,.53,0,1.3,.43,2.3,1.3,.4,.33,.82,.62,1.25,.85,.43,.23,1.98,.35,4.65,.35,4.13,0,7.85-.58,11.15-1.75,3.3-1.17,7.05-3.15,11.25-5.95,8.6-5.8,16.77-14.47,24.5-26,5.67-8.33,10.17-17.83,13.5-28.5,1.27-3.93,2.12-7.28,2.55-10.05,.43-2.77,.65-6.25,.65-10.45v-5.8c-.07-1.67-.47-3.17-1.2-4.5-2-4.47-6.03-6.7-12.1-6.7-3.73,0-7.6,.73-11.6,2.2,2.07,.47,3.1,1.47,3.1,3,0,.6-.57,2.5-1.7,5.7-2.47,6.93-4.97,13.37-7.5,19.3-4.07,9.87-8.63,22.57-13.7,38.1-3.4,10.6-5.43,17.03-6.1,19.3-.33,.93-1.03,1.4-2.1,1.4-1,0-1.93-.3-2.8-.9-.87-.6-1.3-1.37-1.3-2.3v-.2c1.93-10.53,5.33-23.2,10.2-38,4.87-14.8,9.7-27.07,14.5-36.8,2.07-3.8,3.6-6.3,4.6-7.5-9.33,4.4-16.43,11.33-21.3,20.8l-1.8,3.1,1.2,1.1c.53,.6,.8,1.07,.8,1.4,0,.47-.43,.77-1.3,.9h-.2c-.8,0-1.6-.37-2.4-1.1-1-1-1.5-2.2-1.5-3.6,0-2.6,.97-5.57,2.9-8.9C28.53,9.47,39.67,1.9,54.6,.1l1.3-.1c3.46,0,7.1,1.25,10.9,3.75s6.87,5.95,9.2,10.35c1.73,3.87,2.6,8.37,2.6,13.5,0,5.73-1.6,13.87-4.8,24.4-3.2,10.53-9.7,21.83-19.5,33.9-10.6,12.4-21.37,20.1-32.3,23.1-2.67,.67-6,1-10,1Z"/>
      <path d="M78.2,77.7c-.8,0-1.73-.43-2.8-1.3-.87-.87-1.3-1.53-1.3-2,0-1.13,.45-3.1,1.35-5.9s1.92-5.37,3.05-7.7c2.67-5.73,4.97-8.6,6.9-8.6,.87,0,1.73,.5,2.6,1.5,.73,.73,1.1,1.37,1.1,1.9,0,.27-.3,.87-.9,1.8-.93,1.4-1.93,3.13-3,5.2,1.67-1.6,3.28-3.17,4.85-4.7,1.57-1.53,2.93-2.82,4.1-3.85,1.17-1.03,1.9-1.58,2.2-1.65,.3-.07,.55-.1,.75-.1,.93,0,1.83,.48,2.7,1.45,.87,.97,1.5,2.32,1.9,4.05,.13,.8,.55,1.27,1.25,1.4,.7,.13,1.55,.2,2.55,.2h6.7c.67,0,1.3,.27,1.9,.8,.6,.53,.9,.93,.9,1.2l-.1,.2c-.8,.47-3.2,.7-7.2,.7-1.67,0-3.03-.03-4.1-.1-1.47-.13-2.57-.52-3.3-1.15-.73-.63-1.4-1.5-2-2.6-.6-1.1-1.03-1.65-1.3-1.65s-1.12,.7-2.55,2.1c-1.43,1.4-3.03,3.12-4.8,5.15-1.77,2.03-3.37,4.05-4.8,6.05-1.43,2-2.68,3.68-3.75,5.05-1.07,1.37-1.72,2.13-1.95,2.3-.23,.17-.55,.25-.95,.25Z"/>
      <path d="M117.1,78.2c-1.33,0-2.6-.3-3.8-.9-3.2-1.73-4.8-4.4-4.8-8,0-3,1.17-6.4,3.5-10.2,2.8-4.73,5.57-7.1,8.3-7.1l.4,.2c3.67,.8,5.5,2.8,5.5,6,0,1.33-.43,3-1.3,5-.6,1.4-1.29,2.48-2.05,3.25s-1.85,1.15-3.25,1.15c-.93,0-1.8-.23-2.6-.7-.47-.33-.8-.5-1-.5s-.37,.13-.5,.4c-.93,1.67-1.4,3.57-1.4,5.7,0,1.93,.47,2.9,1.4,2.9,.4,0,1.2-.2,2.4-.6,4.46-1.33,9.77-4.37,15.9-9.1,3.73-2.73,6.13-4.63,7.2-5.7,.8-.8,1.5-1.2,2.1-1.2,.47,0,.9,.23,1.3,.7,.2,.27,.3,.53,.3,.8,0,.2-.12,.5-.35,.9-.23,.4-1.05,1.13-2.45,2.2l-7.8,6.3c-1,.73-2.03,1.5-3.1,2.3-1.07,.8-2.03,1.47-2.9,2-4.6,2.8-8.27,4.2-11,4.2Zm1-13.1c.53,0,1.2-.53,2-1.6,1.6-2.13,2.4-4.23,2.4-6.3v-1.5l-1.6,1.4c-.73,.73-1.6,2.1-2.6,4.1l-.2,.3c-.4,.8-.7,1.43-.9,1.9-.2,.47-.3,.8-.3,1,0,.13,.07,.23,.2,.3,.33,.27,.67,.4,1,.4Z"/>
      <path d="M140.8,86.8c-1.6,0-3.47-.43-5.6-1.3-3.73-1.8-5.6-3.63-5.6-5.5,0-1.33,.83-2.23,2.5-2.7,2.2-.6,4.17-1.33,5.9-2.2,1.73-.87,2.67-1.5,2.8-1.9,.13-.4,.2-1.47,.2-3.2l-.2-12.5c0-1.87,.27-3.33,.8-4.4,.8-1.8,1.83-3.08,3.1-3.85,1.27-.77,2.53-1.15,3.8-1.15,1.73,0,2.97,.42,3.7,1.25,.73,.83,1.1,1.48,1.1,1.95,0,.6-.63,.97-1.9,1.1-.67,.13-1.2,.38-1.6,.75-.4,.37-.82,1-1.25,1.9-.43,.9-.7,1.88-.8,2.95-.1,1.07-.15,2.53-.15,4.4s.13,3.77,.4,5.9l.3,1.7,7.9-6c3.4-2.67,6.23-5.07,8.5-7.2,1.46-1.53,2.87-2.73,4.2-3.6,1.33-.87,3.03-1.3,5.1-1.3,1.73,0,2.97,.43,3.7,1.3,.73,.6,1.1,1.13,1.1,1.6,0,.53-.63,.87-1.9,1-.67,.07-1.2,.28-1.6,.65-.4,.37-.82,.95-1.25,1.75-.43,.8-.7,1.67-.8,2.6-.1,.93-.15,2.27-.15,4,0,1.13,.07,2.17,.2,3.1l.2,2.3,.3,1.4c1.27-.87,2.48-1.68,3.65-2.45,1.17-.77,2.57-1.71,4.2-2.85,1.63-1.13,3.15-2.23,4.55-3.3,2.07-1.53,3.67-2.7,4.8-3.5,1.13-.8,1.95-1.32,2.45-1.55,.5-.23,.88-.35,1.15-.35,.4,0,.8,.18,1.2,.55,.4,.37,.6,.75,.6,1.15,0,.2-1.03,1.1-3.1,2.7-3.67,2.87-8.57,6.43-14.7,10.7-2.6,1.8-4.03,2.93-4.3,3.4-.27,.47-.43,.97-.5,1.5-.33,1.8-.73,3.17-1.2,4.1-1.2,2.33-3.27,3.5-6.2,3.5-1.67,0-3.53-.4-5.6-1.2-2.53-1.2-3.8-2.47-3.8-3.8,0-1.13,.93-1.97,2.8-2.5,4.2-1.2,6.4-2.3,6.6-3.3,.07-.27,.1-1.17,.1-2.7l-.2-11.5c-4.87,4.07-9.27,7.6-13.2,10.6-1.33,1-2.33,1.8-3,2.4-1.07,1.07-1.67,2.2-1.8,3.4-.53,4.33-1.6,7.3-3.2,8.9-1.2,.87-2.63,1.3-4.3,1.3Zm-3.7-4.3c.53,0,.95-.25,1.25-.75s.58-1.08,.85-1.75l.4-.9-.4,.1c-.27,.13-.62,.28-1.05,.45-.43,.17-.87,.33-1.3,.5-.43,.17-.8,.32-1.1,.45-.3,.13-.53,.22-.7,.25-.17,.03-.25,.15-.25,.35s.28,.46,.85,.8c.57,.33,1.05,.5,1.45,.5Zm25.4-1.2c.33,0,.73-.23,1.2-.7l.4-.5-.8,.1c-.87,.27-1.3,.57-1.3,.9,0,.13,.17,.2,.5,.2Z"/>
      <path d="M222.2,78.2c-1.4,0-2.7-.27-3.9-.8-2.73-1.6-4.3-3.8-4.7-6.6v-.6c0-2.33,.65-4.93,1.95-7.8,1.3-2.87,3.12-5.37,5.45-7.5,1.33-1.2,2.45-1.98,3.35-2.35,.9-.37,1.95-.55,3.15-.55,.67,0,1.25,.13,1.75,.4,.5,.27,1.03,.7,1.6,1.3,.57,.6,.97,1.05,1.2,1.35,.23,.3,.35,.65,.35,1.05s-.03,.95-.1,1.65c-.07,.7-.23,1.33-.5,1.9-.27,.57-.57,1.02-.9,1.35s-.57,.53-.7,.6c-.13,.07-.27,.1-.4,.1-.27,0-.6-.08-1-.25-.4-.17-.67-.38-.8-.65-.13-.27-.2-.47-.2-.6,0-.27,.03-.48,.1-.65,.07-.17,.18-.52,.35-1.05,.17-.53,.28-1.43,.35-2.7l-1.2,.8c-1.67,1.27-3.25,3.28-4.75,6.05-1.5,2.77-2.58,5.45-3.25,8.05-.27,1.07-.4,2-.4,2.8,0,1.53,.46,2.3,1.4,2.3,.4,0,1.03-.1,1.9-.3,2.67-.6,5.1-1.47,7.3-2.6,.87-.46,2.8-1.73,5.8-3.8l1.5-1.1c8.33-6.07,12.9-9.1,13.7-9.1,.33,0,.73,.15,1.2,.45,.47,.3,.7,.62,.7,.95,0,.13-.08,.25-.25,.35-.17,.1-1.12,.79-2.85,2.05-1.73,1.27-3.8,2.83-6.2,4.7-2.4,1.87-4.62,3.5-6.65,4.9-2.03,1.4-3.42,2.3-4.15,2.7-3.93,2.13-7.33,3.2-10.2,3.2Z"/>
      <path d="M256.4,78.5h-.4c-.27,0-.77-.13-1.5-.4l-.5-.2c-1.33-.4-2.37-.96-3.1-1.7-2.33-2.07-3.5-4.93-3.5-8.6,0-1.53,.37-3.68,1.1-6.45,.73-2.77,2.63-5.38,5.7-7.85,1.53-1.07,3.1-1.6,4.7-1.6,1.33,0,2.42,.32,3.25,.95,.83,.63,1.47,.95,1.9,.95s.93,.42,1.5,1.25c.57,.83,1.03,1.83,1.4,3,.37,1.17,.7,1.97,1,2.4,.3,.43,.82,.82,1.55,1.15,1.33,.54,2.83,.8,4.5,.8,2.07,0,4.33-.4,6.8-1.2,1.6-.53,2.63-.8,3.1-.8,.53,0,1.03,.18,1.5,.55,.47,.37,.7,.68,.7,.95,0,.2-.2,.47-.6,.8-.4,.33-1.77,.8-4.1,1.4-1.93,.54-3.83,.8-5.7,.8-2.07,0-4.1-.33-6.1-1l-1.6-.6c-.27,0-.47,.18-.6,.55-.13,.37-.3,.98-.5,1.85-.47,3-1.77,5.83-3.9,8.5-1.67,2.13-3.37,3.47-5.1,4l-1.5,.5Zm-1.8-3.2c1,0,2.4-.9,4.2-2.7,2.4-2.4,4-5.77,4.8-10.1,0-.2,.03-.37,.1-.5l.1-1.5c-.07-.4-.25-.82-.55-1.25-.3-.43-.57-.92-.8-1.45-.23-.53-.35-1.02-.35-1.45s-.02-.73-.05-.9c-.03-.17-.18-.25-.45-.25-.67,0-1.67,.6-3,1.8-1.53,1.47-2.8,3.33-3.8,5.6-1.13,2.67-1.7,5.43-1.7,8.3v1.7c0,.67,.12,1.28,.35,1.85,.23,.57,.62,.85,1.15,.85Z"/>
      <path d="M291.2,103.5c-.27,0-.63-.1-1.1-.3-.47-.2-.93-.54-1.4-1-.47-.47-.78-.97-.95-1.5-.17-.54-.25-1.43-.25-2.7,0-4.8,2.87-15.03,8.6-30.7v-.3c-.2,0-.6,.37-1.2,1.1-1.07,1.27-2.33,2.63-3.8,4.1s-2.85,2.77-4.15,3.9c-1.3,1.13-2.13,1.75-2.5,1.85-.37,.1-.68,.15-.95,.15-1.13,0-2.3-.55-3.5-1.65-1.2-1.1-1.8-2.35-1.8-3.75,0-2,.67-4.58,2-7.75,1.33-3.17,2.77-5.65,4.3-7.45,2.33-2.47,4.83-3.7,7.5-3.7,2.13,0,3.9,.9,5.3,2.7l.9,1.3,2.6-3.9c1.93-2.73,3.77-5.77,5.5-9.1,1.47-2.93,3.6-6.93,6.4-12,6.73-12.33,10.83-19.5,12.3-21.5,.53-.6,.96-.9,1.3-.9,.47,0,.82,.08,1.05,.25,.23,.17,.55,.32,.95,.45,.87,.33,1.33,.6,1.4,.8,0,.33-.93,2.47-2.8,6.4l-16.2,33.4c-3.73,7.53-7.37,15.93-10.9,25.2-2.53,6.47-4.3,11.97-5.3,16.5l-.6,2.9h.4c.53,0,1.08-.03,1.65-.1,.57-.07,.98-.1,1.25-.1,.47,.13,.7,.53,.7,1.2s-.45,1.48-1.35,2.45c-.9,.97-1.87,1.83-2.9,2.6-1.03,.77-1.85,1.15-2.45,1.15Zm-6.5-30.9c.27,0,1.07-.67,2.4-2,2.6-2.53,5.13-5.37,7.6-8.5,.47-.6,.7-1.17,.7-1.7,0-.4-.1-.8-.3-1.2-.27-1-.63-1.63-1.1-1.9-.6,0-1.33,.4-2.2,1.2-1.47,1.47-2.93,3.73-4.4,6.8-1.87,4-2.8,6.4-2.8,7.2,0,.07,.03,.1,.1,.1Z"/>
      <path d="M322.59,78.2c-1.33,0-2.6-.3-3.8-.9-3.2-1.73-4.8-4.4-4.8-8,0-3,1.17-6.4,3.5-10.2,2.8-4.73,5.57-7.1,8.3-7.1l.4,.2c3.67,.8,5.5,2.8,5.5,6,0,1.33-.43,3-1.3,5-.6,1.4-1.29,2.48-2.05,3.25s-1.85,1.15-3.25,1.15c-.93,0-1.8-.23-2.6-.7-.47-.33-.8-.5-1-.5s-.37,.13-.5,.4c-.93,1.67-1.4,3.57-1.4,5.7,0,1.93,.47,2.9,1.4,2.9,.4,0,1.2-.2,2.4-.6,4.46-1.33,9.77-4.37,15.9-9.1,3.73-2.73,6.13-4.63,7.2-5.7,.8-.8,1.5-1.2,2.1-1.2,.47,0,.9,.23,1.3,.7,.2,.27,.3,.53,.3,.8,0,.2-.12,.5-.35,.9-.23,.4-1.05,1.13-2.45,2.2l-7.8,6.3c-1,.73-2.03,1.5-3.1,2.3-1.07,.8-2.03,1.47-2.9,2-4.6,2.8-8.27,4.2-11,4.2Zm1-13.1c.53,0,1.2-.53,2-1.6,1.6-2.13,2.4-4.23,2.4-6.3v-1.5l-1.6,1.4c-.73,.73-1.6,2.1-2.6,4.1l-.2,.3c-.4,.8-.7,1.43-.9,1.9-.2,.47-.3,.8-.3,1,0,.13,.07,.23,.2,.3,.33,.27,.67,.4,1,.4Z"/>
    </g>
  </g>
</svg>