<?xml version="1.0" encoding="utf-8"?>
<!-- Generator: Adobe Illustrator 27.0.0, SVG Export Plug-In . SVG Version: 6.00 Build 0)  -->
<svg version="1.1" id="Слой_1" xmlns="http://www.w3.org/2000/svg" xmlns:xlink="http://www.w3.org/1999/xlink" x="0px" y="0px"
	 viewBox="0 0 69.9 116.7" style="enable-background:new 0 0 69.9 116.7;" xml:space="preserve">
<style type="text/css">
	.st0{fill:none;stroke:#48494A;stroke-width:0.75;stroke-linecap:round;stroke-linejoin:round;}
	.st1{fill:none;stroke:#48494A;stroke-width:0.75;stroke-linecap:round;stroke-linejoin:round;stroke-dasharray:1.96,1.96;}
	.st2{fill:none;stroke:#48494A;stroke-width:0.75;stroke-linecap:round;stroke-linejoin:round;stroke-dasharray:1.85,1.85;}
	.st3{fill:none;stroke:#48494A;stroke-width:0.75;stroke-linecap:round;stroke-linejoin:round;stroke-dasharray:1.92,1.92;}
	.st4{fill:#48494A;}
</style>
<g id="Слой_2_00000124848291978679221190000003950633525427310003_">
	<g id="Objects">
		<path class="st0" d="M19.4,88.5l0.4-0.9"/>
		<path class="st1" d="M20.4,85.8c3.1-8.3,3.4-17.4,1.1-26"/>
		<path class="st0" d="M21.2,58.8c-0.1-0.3-0.2-0.6-0.3-1"/>
		<path class="st0" d="M27.1,61.5c-0.3,0-0.7-0.1-1-0.2"/>
		<path class="st2" d="M24.4,60.7c-0.3-0.1-0.5-0.3-0.8-0.5c-0.5-0.4-1-0.8-1.4-1.2"/>
		<path class="st0" d="M21.6,58.3c-0.2-0.3-0.4-0.5-0.6-0.8c-0.1,0.3-0.1,0.7-0.2,1"/>
		<path class="st3" d="M20.3,60.4c-0.2,0.9-0.6,1.8-1.1,2.7"/>
		<path class="st0" d="M18.6,63.8c-0.2,0.3-0.4,0.5-0.7,0.7"/>
		<path class="st0" d="M21.3,47.7l1-0.2"/>
		<path class="st1" d="M24.2,46.9c8.5-2.7,15.9-8,21.2-15.1"/>
		<path class="st0" d="M45.9,31c0.2-0.3,0.4-0.6,0.5-0.8"/>
		<path class="st0" d="M47.3,37.2c-0.2-0.3-0.3-0.6-0.5-0.9"/>
		<path class="st2" d="M46.3,34.6c0-0.3-0.1-0.6-0.1-0.9c0-0.6,0-1.2,0.1-1.9"/>
		<path class="st0" d="M46.5,30.9c0.1-0.3,0.1-0.7,0.2-1c-0.3,0.2-0.6,0.3-0.9,0.5"/>
		<path class="st3" d="M44.1,31.2c-0.9,0.4-1.8,0.6-2.8,0.8"/>
		<path class="st0" d="M40.4,32c-0.3,0-0.7,0-1-0.1"/>
		<path class="st4" d="M36.1,95.5c0.6-2.2,0.7-4.4,0.5-6.6c-0.1-1.1-0.5-2.1-1.2-3c-0.3-0.4-0.8-0.6-1.3-0.7c-0.5-0.1-1-0.1-1.5,0
			c-2.1,0.5-4,1.7-5.4,3.3c-1.6,1.5-2.8,3.2-3.7,5.2c-0.4,0.9-0.7,2-0.9,3c-0.1,0.4-0.1,0.8,0,1.1c0,0.1,0.5,0.2,1,0.3
			c1.1,0,2.3,0.1,3.4,0.2c0.3,0.1,0.6,0.2,0.9,0.3c0.3,0.2,0.6,0.4,0.8,0.6c0.4,0.5,0.7,1,0.9,1.5c0.2,0.5,0.5,1,0.7,1.5
			c0.2,0.4,0.6,0.8,1,1c0.5,0.1,1,0,1.4-0.2c0.5-0.3,0.9-0.7,1.2-1.1C35.1,99.8,35.8,97.7,36.1,95.5z M36.1,95.5
			c-0.2,1.1-0.4,2.2-0.7,3.3c-0.3,1.1-0.7,2.2-1.2,3.2c-0.3,0.5-0.7,1-1.1,1.3c-0.5,0.4-1.1,0.6-1.7,0.4c-0.6-0.2-1-0.6-1.4-1.2
			c-0.3-0.5-0.6-1-0.9-1.5c-0.2-0.5-0.5-0.9-0.9-1.3c-0.2-0.2-0.3-0.3-0.5-0.4c-0.2-0.1-0.5-0.1-0.7-0.2c-1-0.2-2.1,0.1-3.3,0.1
			c-0.3,0-0.6,0-0.9-0.1c-0.4-0.1-0.8-0.3-1.1-0.6c-0.3-0.3-0.4-0.7-0.4-1.2c0-0.3,0-0.7,0-1c0.1-1.2,0.5-2.3,1-3.4
			c1-2.1,2.4-4,4.2-5.5c1.7-1.7,3.8-2.7,6.2-3.1c0.6-0.1,1.2,0,1.8,0.2c0.3,0.1,0.6,0.2,0.8,0.4c0.3,0.2,0.5,0.4,0.7,0.7
			c0.6,1,0.9,2.1,1,3.3C37,91,36.7,93.3,36.1,95.5z"/>
		<path class="st4" d="M22.2,115c0.7-0.7,1.3-1.5,1.8-2.4c0.2-0.4,0.4-0.9,0.4-1.4c0.1-0.6-0.1-0.6-0.6-0.7c-1-0.1-2.1-0.4-3.1-0.8
			c-0.5-0.2-0.9-0.3-1.4-0.4c-0.2-0.1-0.4-0.1-0.6-0.1c0,0,0,0,0,0s0.1-0.1,0.1,0c-0.8,1.7-1.1,3.6-0.9,5.5c0,0.5,0.2,0.9,0.4,1.3
			c0.3,0.3,0.8,0.5,1.3,0.5C20.7,116.3,21.6,115.8,22.2,115z M22.2,115c-0.7,0.8-1.6,1.4-2.6,1.6c-0.6,0.1-1.1,0-1.6-0.3
			c-0.4-0.4-0.7-0.9-0.9-1.4c-0.7-2.1-0.5-4.4,0.4-6.4c0.1-0.2,0.3-0.5,0.6-0.6c0.2-0.1,0.5-0.1,0.7-0.1c0.3,0,0.6,0.1,0.9,0.2
			c0.5,0.2,1,0.4,1.5,0.6c0.9,0.5,1.8,0.9,2.7,1.2c0.3,0.1,0.6,0.2,0.8,0.5c0.1,0.2,0.1,0.4,0.1,0.5c0,0.2,0,0.3-0.1,0.4
			c-0.1,0.5-0.4,1-0.7,1.4C23.6,113.5,22.9,114.3,22.2,115z"/>
		<path class="st4" d="M24.6,111c-0.7,0.1-1.5,0.1-2.2,0c-0.7-0.1-1.4-0.4-2.1-0.8c0.7,0.2,1.4,0.4,2.1,0.5
			C23.2,110.9,23.9,111,24.6,111z"/>
		<path class="st4" d="M24.1,112c-0.5,0.1-1.1,0.1-1.6,0c-0.5-0.1-1.1-0.2-1.6-0.4c0.5,0,1.1,0.1,1.6,0.1S23.6,111.9,24.1,112z"/>
		<path class="st4" d="M23.5,113.1c-0.4,0.1-0.9,0.1-1.3,0c-0.4-0.1-0.9-0.2-1.2-0.5c0.4,0.1,0.9,0.2,1.3,0.2S23,113,23.5,113.1z"/>
		<path class="st4" d="M22.9,113.9c-0.4,0.1-0.8,0-1.1-0.1c-0.4-0.1-0.7-0.3-1-0.5c0.4,0.1,0.7,0.2,1.1,0.2S22.5,113.8,22.9,113.9z"
			/>
		<path class="st4" d="M22.3,114.7c-0.4,0.1-0.8,0.1-1.2,0c-0.4-0.1-0.8-0.2-1.2-0.4c0.4,0,0.8,0.1,1.2,0.1S21.9,114.6,22.3,114.7z"
			/>
		<path class="st4" d="M21.6,115.4c-0.3,0.1-0.7,0.1-1,0.1c-0.3,0-0.7-0.1-1-0.3c0.3,0,0.7,0,1,0C20.9,115.3,21.3,115.3,21.6,115.4z
			"/>
		<path class="st4" d="M20.8,116.2c-0.3,0.1-0.7,0.1-1,0.1c-0.4,0-0.7-0.2-1-0.3c0.4,0,0.7,0.1,1,0.1S20.5,116.2,20.8,116.2z"/>
		<path class="st4" d="M36,86.8c-0.5-0.5-1.1-0.8-1.8-1C35,85.7,35.7,86.1,36,86.8z"/>
		<path class="st4" d="M36.6,88.1c-0.5-0.6-1.2-1-2-1.1C35.4,86.8,36.3,87.3,36.6,88.1z"/>
		<path class="st4" d="M36.8,89.1c-0.4-0.2-0.8-0.4-1.2-0.6s-0.8-0.3-1.2-0.6c0.5,0,0.9,0.1,1.3,0.3C36.1,88.5,36.5,88.8,36.8,89.1z
			"/>
		<path class="st4" d="M36.9,90.2c-0.5-0.2-0.9-0.4-1.4-0.6s-0.9-0.4-1.3-0.6c0.5,0.1,1,0.2,1.4,0.4C36.1,89.6,36.5,89.9,36.9,90.2z
			"/>
		<path class="st4" d="M36.8,91.3c-0.5-0.3-1-0.6-1.5-0.8C35.9,90.4,36.5,90.7,36.8,91.3z"/>
		<path class="st4" d="M36.6,92.2c-0.3-0.1-0.7-0.2-1-0.3s-0.6-0.2-1-0.3C35.4,91.4,36.1,91.7,36.6,92.2z"/>
		<path class="st4" d="M36.4,93.3c-0.6-0.2-1.3-0.4-1.9-0.6C35.2,92.6,35.9,92.8,36.4,93.3z"/>
		<path class="st4" d="M36.2,94.7c-0.3-0.1-0.7-0.1-1-0.3c-0.3-0.1-0.6-0.3-0.9-0.5c0.3,0.1,0.7,0.2,1,0.3
			C35.6,94.3,35.9,94.4,36.2,94.7z"/>
		<path class="st4" d="M35.9,95.9c-0.1-0.2-0.2-0.2-0.4-0.3L35,95.4c-0.3-0.2-0.7-0.3-1-0.5c0.4,0,0.7,0.1,1.1,0.2
			c0.2,0.1,0.3,0.2,0.5,0.3S35.9,95.7,35.9,95.9z"/>
		<path class="st4" d="M35.6,97.1c-0.4-0.3-0.8-0.6-1.3-0.7C34.9,96.2,35.5,96.5,35.6,97.1z"/>
		<path class="st4" d="M35.2,98c-0.3-0.1-0.6-0.2-0.9-0.3s-0.6-0.2-0.9-0.4c0.3,0,0.7,0,1,0.1C34.7,97.6,35,97.8,35.2,98z"/>
		<path class="st4" d="M35.2,99.3c-0.7-0.3-1.3-0.6-2.1-0.9C34,98.4,34.7,98.7,35.2,99.3z"/>
		<path class="st4" d="M34.9,100.2c-0.3,0-0.6-0.1-0.8-0.2s-0.5-0.1-0.8-0.2c0.3-0.1,0.6-0.1,0.9,0C34.4,99.9,34.7,100,34.9,100.2z"
			/>
		<path class="st4" d="M34.3,101.1c-0.5-0.2-1-0.3-1.5-0.4C33.3,100.5,33.9,100.6,34.3,101.1z"/>
		<path class="st4" d="M33.7,102.3c-0.5-0.3-1-0.5-1.5-0.7C32.8,101.4,33.4,101.7,33.7,102.3z"/>
		<path class="st4" d="M32.9,102.8c-0.2-0.1-0.5-0.1-0.7-0.2c-0.2-0.1-0.4-0.2-0.6-0.3c0.3,0,0.5,0,0.7,0.1
			C32.6,102.5,32.8,102.6,32.9,102.8z"/>
		<path class="st4" d="M1.6,60.4c0.6-2.2,1.5-4.2,2.7-6.2c0.6-1,1.5-1.8,2.5-2.4c0.3-0.1,0.6-0.2,0.9-0.2c0.3,0,0.6,0,0.9,0.1
			c0.6,0.1,1.2,0.4,1.6,0.8c1.8,1.5,3.2,3.5,3.8,5.7c0.8,2.2,1.1,4.6,0.9,6.9c-0.1,1.2-0.4,2.4-0.9,3.4c-0.1,0.3-0.3,0.6-0.4,0.9
			c-0.2,0.4-0.6,0.6-0.9,0.8c-0.4,0.2-0.9,0.2-1.3,0c-0.3-0.1-0.6-0.2-0.9-0.4c-1.1-0.6-1.9-1.3-2.8-1.7C7.6,68.1,7.3,68,7.1,68
			c-0.2,0-0.4,0-0.7,0.1c-0.5,0.1-1,0.4-1.4,0.6c-0.5,0.3-1,0.6-1.5,0.8c-0.5,0.3-1.2,0.4-1.8,0.3c-0.6-0.2-1.1-0.6-1.3-1.2
			c-0.2-0.5-0.3-1.1-0.3-1.7c0-1.1,0.2-2.2,0.5-3.3C0.9,62.5,1.3,61.4,1.6,60.4z M1.6,60.4c-0.8,2.1-1.3,4.3-1.3,6.5
			c0,0.5,0.2,1.1,0.4,1.6c0.2,0.5,0.6,0.8,1.1,0.9c0.5,0,1-0.1,1.4-0.4c0.5-0.3,0.9-0.6,1.4-0.9c0.5-0.4,1-0.7,1.6-0.9
			c0.3-0.1,0.7-0.2,1-0.2c0.3,0,0.6,0.1,0.9,0.2c1.1,0.4,2.1,0.9,3.1,1.5c0.4,0.2,1,0.4,1,0.3c0.3-0.3,0.5-0.6,0.6-1
			c0.4-1,0.6-2,0.7-3c0.2-2.1-0.1-4.3-0.7-6.3c-0.4-2.1-1.5-4-3.1-5.5c-0.4-0.4-0.8-0.6-1.3-0.8C8,52.2,7.5,52.2,7,52.3
			c-1,0.5-1.8,1.2-2.5,2C3.2,56.2,2.2,58.2,1.6,60.4z"/>
		<path class="st4" d="M4,84.3c-0.3-1-0.4-2-0.5-3c0-0.5,0-1.1,0.1-1.6c0-0.1,0.1-0.3,0.1-0.4c0.1-0.2,0.2-0.3,0.4-0.4
			c0.3-0.1,0.7-0.1,1,0c1,0.2,2,0.3,3,0.3c0.5,0,1.1,0.1,1.6,0.2c0.3,0.1,0.6,0.1,0.9,0.3c0.2,0.1,0.4,0.3,0.6,0.5
			c0.2,0.2,0.2,0.5,0.2,0.8c-0.2,2.2-1.2,4.2-2.9,5.7c-0.4,0.4-1,0.7-1.5,0.8c-0.6,0.1-1.1-0.1-1.5-0.5C4.7,86.2,4.2,85.3,4,84.3z
			 M4,84.3c0.2,1,0.7,1.9,1.6,2.5C5.9,87,6.4,87.1,6.9,87c0.4-0.2,0.8-0.5,1-0.9c1.1-1.6,1.7-3.4,1.9-5.3c0-0.1,0,0,0,0.1s0,0,0,0
			c-0.2-0.1-0.4-0.1-0.6-0.2c-0.4-0.1-0.9-0.2-1.4-0.3c-1-0.1-2-0.4-3-0.8c-0.5-0.2-0.6-0.3-0.8,0.3c-0.2,0.4-0.3,0.9-0.3,1.4
			C3.7,82.3,3.8,83.3,4,84.3z"/>
		<path class="st4" d="M10.6,81.2c-0.7,0.2-1.5,0.2-2.2,0.1c-0.7-0.1-1.4-0.3-2.1-0.7C7,80.8,7.7,81,8.4,81.1
			C9.1,81.2,9.8,81.2,10.6,81.2z"/>
		<path class="st4" d="M10.1,82.3c-1.1,0.2-2.2,0.1-3.3-0.2c0.6,0,1.1,0,1.6,0S9.6,82.2,10.1,82.3z"/>
		<path class="st4" d="M9.5,83.3c-0.4,0.1-0.9,0.2-1.3,0.1C7.8,83.4,7.4,83.2,7,83c0.4,0,0.9,0.1,1.3,0.2
			C8.7,83.2,9.1,83.3,9.5,83.3z"/>
		<path class="st4" d="M9,84.2c-0.4,0.1-0.8,0.1-1.2,0c-0.4-0.1-0.7-0.2-1.1-0.4c0.4,0,0.8,0.1,1.1,0.2S8.6,84.1,9,84.2z"/>
		<path class="st4" d="M8.7,85.1c-0.8,0.2-1.7,0.2-2.5-0.2c0.4,0,0.8,0,1.2,0.1S8.3,85,8.7,85.1z"/>
		<path class="st4" d="M8.1,85.9c-0.3,0.1-0.7,0.2-1,0.1c-0.3,0-0.7-0.1-1-0.2c0.3,0,0.7,0,1,0C7.5,85.8,7.8,85.9,8.1,85.9z"/>
		<path class="st4" d="M7.5,86.7c-0.3,0.1-0.7,0.2-1,0.2c-0.4,0-0.7-0.1-1-0.3c0.3,0,0.7,0,1,0S7.1,86.7,7.5,86.7z"/>
		<path class="st4" d="M9.4,52.6c-0.6-0.2-1.3-0.3-2-0.2C8,52,8.9,52.1,9.4,52.6z"/>
		<path class="st4" d="M10.4,53.6c-0.7-0.3-1.5-0.4-2.3-0.2C8.8,52.8,9.8,53,10.4,53.6z"/>
		<path class="st4" d="M11,54.5c-0.5,0-0.9-0.1-1.3-0.1s-0.9,0-1.3,0C9.2,54.1,10.2,54.1,11,54.5L11,54.5z"/>
		<path class="st4" d="M11.9,55.4c-0.5,0-1,0-1.5,0s-1,0-1.5-0.1c0.5-0.1,1-0.2,1.5-0.2C10.9,55.1,11.4,55.2,11.9,55.4z"/>
		<path class="st4" d="M12.1,56.6c-0.6-0.1-1.1-0.1-1.7-0.1C10.9,56.1,11.7,56.1,12.1,56.6z"/>
		<path class="st4" d="M12.7,57.5c-0.4,0-0.7,0-1,0.1s-0.7,0.1-1,0.1c0.3-0.2,0.6-0.3,1-0.3C12,57.3,12.3,57.4,12.7,57.5z"/>
		<path class="st4" d="M12.9,58.6c-0.7,0-1.3,0.1-2,0.2C11.5,58.4,12.3,58.3,12.9,58.6z"/>
		<path class="st4" d="M13.1,59.8c-0.7,0.2-1.4,0.2-2.1,0C11.7,59.6,12.4,59.6,13.1,59.8z"/>
		<path class="st4" d="M13.4,61.1C13.2,61,13.1,61,12.9,61h-0.5c-0.4,0-0.7,0-1.1,0c0.3-0.1,0.7-0.2,1.1-0.2c0.2,0,0.4,0,0.6,0
			C13.1,60.8,13.3,60.9,13.4,61.1z"/>
		<path class="st4" d="M13.4,62.3c-0.5-0.1-1-0.2-1.5-0.2C12.4,61.7,13.1,61.8,13.4,62.3z"/>
		<path class="st4" d="M13.6,63.2c-0.3,0-0.6,0-0.9,0s-0.6,0-0.9,0c0.3-0.2,0.6-0.2,0.9-0.2C13,63,13.3,63.1,13.6,63.2z"/>
		<path class="st4" d="M13.4,64.4c-0.8,0-1.5,0-2.2,0C11.9,64.1,12.7,64.1,13.4,64.4z"/>
		<path class="st4" d="M13.5,65.4c-0.3,0.1-0.6,0.1-0.9,0.1s-0.6,0.1-0.9,0.1c0.2-0.2,0.5-0.3,0.8-0.3
			C12.9,65.3,13.2,65.3,13.5,65.4z"/>
		<path class="st4" d="M13.2,66.5c-0.5,0-1,0.1-1.5,0.2C12.1,66.3,12.7,66.2,13.2,66.5z"/>
		<path class="st4" d="M13.1,67.8c-0.5-0.1-1.1-0.1-1.6-0.1C12,67.3,12.7,67.3,13.1,67.8z"/>
		<path class="st4" d="M12.7,68.6c-0.2,0.1-0.5,0.1-0.7,0.1c-0.2,0-0.5,0-0.7,0c0.2-0.1,0.5-0.2,0.7-0.2
			C12.2,68.4,12.5,68.5,12.7,68.6z"/>
		<path class="st4" d="M0,60.6c0.5-3.3,2-6.3,4.3-8.6C2.3,54.6,0.8,57.5,0,60.6z"/>
		<path class="st4" d="M34.4,104.2c0.8-0.9,1.5-1.9,1.8-3.1c0.4-1.1,0.8-2.3,1.1-3.5c0.3-1.2,0.5-2.4,0.8-3.6s0.4-2.4,0.5-3.6
			c-0.1,2.4-0.4,4.8-1,7.2c-0.3,1.2-0.7,2.3-1.1,3.5C36,102.4,35.3,103.4,34.4,104.2z"/>
		<path class="st4" d="M21.3,11.1C20.5,13.1,19.7,15,19,17c-0.4,1-0.7,2-1.1,3s-0.7,2-0.9,3c0.4-2,1-4.1,1.8-6
			C19.5,15,20.3,13,21.3,11.1z"/>
		<path class="st4" d="M68.7,48.4c-0.5,1.1-1,2.2-1.6,3.3c-0.6,1.1-1.2,2.1-1.9,3.1c-0.7,1-1.6,1.8-2.6,2.6c-1,0.7-2,1.5-3,2.2
			c0.9-0.8,1.9-1.6,2.8-2.3c1-0.7,1.9-1.6,2.6-2.5c0.7-1,1.3-2,1.9-3.1S68.1,49.5,68.7,48.4z"/>
		<path class="st4" d="M12.7,37.5c0,0.9,0.2,1.8,0.5,2.7c0.3,0.8,0.9,1.6,1.6,2.1c1.6,0.8,3.5,0.7,5-0.4c1.4-1,2.5-2.4,3.1-4.1
			c0.4-0.8,0.7-1.6,1-2.5s0.6-1.7,0.9-2.5c0.1-0.3,0.1-0.5,0-0.8c-0.2-0.3-0.4-0.5-0.7-0.7c-0.7-0.5-1.5-1-2.2-1.5
			c-0.7-0.5-1.5-0.9-2.3-1.2c-0.8-0.3-1.6-0.4-2.4-0.3c-0.4,0.1-0.7,0.3-1,0.6c-0.3,0.3-0.6,0.7-0.9,1c-0.5,0.7-1,1.5-1.4,2.3
			C13.1,33.9,12.7,35.7,12.7,37.5z M12.7,37.5c0-1.8,0.3-3.6,0.9-5.4c0.3-0.9,0.7-1.7,1.2-2.5c0.2-0.4,0.5-0.8,0.8-1.2
			c0.3-0.4,0.8-0.7,1.2-0.9c1-0.3,2-0.3,3,0c0.9,0.3,1.8,0.6,2.6,1c0.8,0.4,1.6,0.9,2.4,1.4c0.5,0.3,0.9,0.7,1.2,1.2
			c0.3,0.6,0.3,1.2,0.1,1.9c-0.6,1.8-1.3,3.5-2.1,5.2c-0.8,1.7-2.2,3.2-3.9,4.2c-1.7,1-3.8,0.9-5.4-0.1c-0.8-0.5-1.3-1.3-1.6-2.2
			C12.8,39.3,12.7,38.4,12.7,37.5z"/>
		<path class="st4" d="M23.1,27.4c0.7,0.4,1.5,0.6,2.3,0.8c0.8,0.2,1.6,0.1,2.4-0.1c1.5-0.7,2.9-1.6,4-2.8c1.2-1.1,2.5-2.1,3.7-3.2
			c1.2-1,2.3-2.3,3-3.8c0.7-1.5,1.2-3,1.6-4.6c0.4-1.6,0.8-3.2,1-4.8c0.2-1.6,0.4-3.2,0.5-4.8c0.1-0.6-0.1-1.2-0.6-1.5
			c-0.7-0.4-1.4-0.6-2.1-0.7c-0.7-0.2-1.5-0.3-2.3-0.4c-0.7,0-1.4,0.2-2,0.6c-1.3,0.8-2.7,1.9-4,2.8l-4,2.8
			c-1.3,0.9-2.4,2.1-3.2,3.4c-1.4,3-2.7,6-3.8,9.1c-0.3,0.8-0.6,1.5-0.9,2.3c-0.3,0.8-0.3,1.6,0.2,2.3c0.5,0.6,1.2,1.2,1.9,1.5
			C21.6,26.8,22.4,27.1,23.1,27.4z M23.1,27.4c-0.8-0.3-1.5-0.6-2.3-1c-0.8-0.3-1.4-0.8-2-1.5c-0.5-0.7-0.6-1.6-0.2-2.4
			c0.3-0.8,0.6-1.5,0.8-2.3c1.1-3.1,1.9-6.3,3.3-9.4c0.8-1.5,1.9-2.9,3.3-3.9c1.3-1,2.6-2.1,3.9-3.1l2-1.5c0.7-0.5,1.3-1,2-1.5
			C34.9,0.3,35.8,0,36.8,0c0.9,0,1.8,0.1,2.6,0.4c0.9,0.2,1.8,0.5,2.5,1c0.4,0.3,0.8,0.8,1,1.3c0.2,0.5,0.2,1,0.2,1.5
			c-0.1,1.7-0.3,3.3-0.6,5c-0.3,1.6-0.7,3.3-1.2,4.8c-0.5,1.6-1.1,3.2-1.9,4.6c-0.9,1.5-2,2.7-3.3,3.8c-1.3,1-2.6,2-3.9,3
			c-1.2,1.1-2.6,2-4.2,2.7c-0.8,0.3-1.6,0.3-2.5,0.1C24.7,28.1,23.9,27.8,23.1,27.4z"/>
		<path class="st4" d="M16.5,28.5c0.8,0.6,1.7,1.2,2.6,1.6C18.1,30,17.1,29.4,16.5,28.5z"/>
		<path class="st4" d="M15.6,29.4c0.8,0.6,1.7,1.1,2.6,1.5C17.1,30.8,16.2,30.3,15.6,29.4z"/>
		<path class="st4" d="M14.8,30.6c0.6,0.5,1.2,1,1.8,1.3C15.8,31.9,15.1,31.4,14.8,30.6z"/>
		<path class="st4" d="M13.8,32c0.4,0.2,0.6,0.4,1,0.5s0.6,0.3,1,0.5c-0.4,0-0.8-0.1-1.1-0.3C14.4,32.6,14.1,32.3,13.8,32z"/>
		<path class="st4" d="M13.4,33.3c0.4,0.3,0.9,0.6,1.4,0.8C14.2,34.2,13.6,33.8,13.4,33.3z"/>
		<path class="st4" d="M13.2,34.5c0.6,0.4,1.1,0.7,1.7,1C14.2,35.5,13.5,35.1,13.2,34.5z"/>
		<path class="st4" d="M12.8,35.7c0.7,0.6,1.6,1.1,2.6,1.3C14.3,37.1,13.3,36.6,12.8,35.7z"/>
		<path class="st4" d="M12.7,37.3c0.4,0.1,0.7,0.3,1,0.5s0.7,0.3,1,0.5C13.9,38.2,13.2,37.9,12.7,37.3L12.7,37.3z"/>
		<path class="st4" d="M13.1,38.7c0,0.2,0.2,0.3,0.4,0.4c0.2,0.1,0.4,0.2,0.6,0.2c0.4,0.2,0.7,0.3,1.1,0.5c-0.4,0-0.8-0.1-1.2-0.2
			c-0.2-0.1-0.4-0.2-0.6-0.3C13.2,39.1,13,38.9,13.1,38.7z"/>
		<path class="st4" d="M13.5,40.2c0.5,0.5,1.2,1,1.9,1.2C14.6,41.5,13.8,41,13.5,40.2z"/>
		<path class="st4" d="M18.6,23.7c0.5,0.6,1.1,1.1,1.8,1.4C19.6,25.1,18.9,24.5,18.6,23.7z"/>
		<path class="st4" d="M19,22.8c0.4,0.2,0.7,0.4,1,0.6s0.7,0.4,1,0.6C20.2,24,19.5,23.5,19,22.8z"/>
		<path class="st4" d="M19.4,21.6c0.6,0.5,1.2,0.8,1.9,1.1C20.5,22.8,19.8,22.3,19.4,21.6z"/>
		<path class="st4" d="M19.7,20.1c0.3,0.5,0.8,0.9,1.4,1.2c-0.7,0.1-1.3-0.4-1.3-1C19.7,20.2,19.7,20.1,19.7,20.1z"/>
		<path class="st4" d="M20.2,19.4c0.5,0.3,0.9,0.5,1.4,0.7C21,20.2,20.5,19.9,20.2,19.4z"/>
		<path class="st4" d="M20.6,18.2c0.4,0.3,0.8,0.6,1.3,0.8C21.3,19.1,20.8,18.7,20.6,18.2z"/>
		<path class="st4" d="M21,17c0.4,0.4,1,0.8,1.5,1C21.9,18.1,21.2,17.7,21,17z"/>
		<path class="st4" d="M21.3,15.7c0.7,0.4,1.3,0.8,2,1.2C22.5,16.9,21.8,16.4,21.3,15.7z"/>
		<path class="st4" d="M21.8,14.5c0.8,0.5,1.6,1,2.4,1.3C23.3,15.8,22.4,15.3,21.8,14.5z"/>
		<path class="st4" d="M22.4,13.3c0.9,0.6,1.9,1.1,3,1.4C24.2,14.7,23.1,14.2,22.4,13.3z"/>
		<path class="st4" d="M22.9,12.2c0.7,0.4,1.5,0.7,2.3,0.9C24.3,13.2,23.4,12.9,22.9,12.2z"/>
		<path class="st4" d="M23.5,10.9c0.4,0.2,0.8,0.5,1.2,0.8s0.8,0.4,1.2,0.7c-0.5-0.1-1-0.2-1.4-0.5C24.1,11.6,23.7,11.3,23.5,10.9z"
			/>
		<path class="st4" d="M24.4,9.9c0.5,0.4,1.1,0.8,1.7,1C25.3,11,24.7,10.6,24.4,9.9z"/>
		<path class="st4" d="M25,8.9c0.7,0.5,1.5,1,2.3,1.2C26.4,10.1,25.5,9.7,25,8.9z"/>
		<path class="st4" d="M26.2,8.3c0.4,0.1,0.8,0.3,1.1,0.5c0.4,0.2,0.7,0.4,1,0.7c-0.4-0.1-0.8-0.3-1.1-0.5
			C26.8,8.8,26.5,8.6,26.2,8.3z"/>
		<path class="st4" d="M27.5,7.3C28,8,28.8,8.5,29.7,8.8C28.7,8.9,27.8,8.2,27.5,7.3z"/>
		<path class="st4" d="M28.5,6.4c0.5,0.6,1.1,1.1,1.9,1.3C29.5,7.8,28.7,7.3,28.5,6.4z"/>
		<path class="st4" d="M29.2,5.7C29.6,5.8,30,6,30.4,6.2c0.3,0.2,0.7,0.4,1,0.7c-0.4-0.1-0.8-0.3-1.2-0.5C29.8,6.2,29.5,6,29.2,5.7z
			"/>
		<path class="st4" d="M30.8,4.7c0.4,0.7,1,1.2,1.8,1.4C31.7,6.2,30.9,5.6,30.8,4.7z"/>
		<path class="st4" d="M31.7,4c0.7,0.5,1.6,0.9,2.4,1.1C33.2,5.2,32.2,4.8,31.7,4z"/>
		<path class="st4" d="M33.1,3.3c0.7,0.5,1.5,0.9,2.3,1.1C34.5,4.5,33.6,4.1,33.1,3.3z"/>
		<path class="st4" d="M34.3,2.2c0.2,0.4,0.5,0.7,0.9,0.8c0.4,0.2,0.8,0.3,1.2,0.5c-0.5,0-0.9-0.1-1.3-0.2c-0.2-0.1-0.4-0.3-0.5-0.4
			C34.4,2.6,34.3,2.4,34.3,2.2z"/>
		<path class="st4" d="M35.8,1.5c0,0.3,0.2,0.5,0.5,0.6L37,2.4c0.5,0.2,1,0.4,1.5,0.7c-0.6-0.1-1.1-0.2-1.6-0.5
			c-0.2-0.1-0.5-0.3-0.7-0.4C36,2.1,35.7,1.8,35.8,1.5z"/>
		<path class="st4" d="M23.5,26.4c1,0.4,2,0.5,3.1,0.5c0.5-0.1,1-0.2,1.5-0.5c0.5-0.2,0.9-0.6,1.2-1c-0.2,0.5-0.6,0.9-1.1,1.2
			c-0.5,0.3-1,0.5-1.5,0.5C25.5,27.2,24.4,27,23.5,26.4z"/>
		<path class="st4" d="M36,71c-0.9,0.2-1.8,0.2-2.7,0c-0.9-0.1-1.8-0.6-2.4-1.2c-1.3-1.5-1.7-3.5-1-5.3c0.7-1.8,2-3.3,3.6-4.4
			c1.5-1.1,3.1-2.1,4.8-2.9c0.6-0.3,1.2-0.4,1.8-0.3c0.5,0.2,1,0.5,1.4,1c0.6,0.7,1.2,1.4,1.8,2.2c0.6,0.8,1.1,1.6,1.5,2.4
			c0.5,0.9,0.6,1.9,0.5,2.9c-0.1,0.5-0.3,1-0.7,1.4c-0.3,0.3-0.7,0.7-1,1c-0.7,0.6-1.5,1.1-2.3,1.6C39.6,70.2,37.8,70.8,36,71z
			 M36,71c1.8-0.3,3.5-0.9,5-1.9c0.7-0.5,1.4-1.1,2.1-1.7c0.3-0.3,0.6-0.7,0.9-1c0.2-0.3,0.4-0.7,0.4-1.1c0-0.8-0.2-1.6-0.7-2.3
			c-0.5-0.7-1-1.5-1.5-2.1c-0.6-0.7-1.2-1.3-1.8-2c-0.2-0.3-0.5-0.5-0.8-0.6c-0.3,0-0.6,0-0.8,0.2c-0.7,0.4-1.6,0.8-2.3,1.2
			c-0.8,0.4-1.5,0.8-2.2,1.3c-1.5,0.9-2.7,2.1-3.5,3.7c-0.8,1.6-0.6,3.5,0.4,4.9c0.6,0.7,1.4,1.1,2.3,1.3C34.2,71.1,35.1,71.1,36,71
			z"/>
		<path class="st4" d="M45,58.6c-0.5-0.7-0.9-1.4-1.2-2.2c-0.3-0.8-0.4-1.6-0.3-2.4c0.4-1.6,1.1-3.1,2-4.5c0.8-1.4,1.6-2.9,2.4-4.3
			c0.8-1.5,1.9-2.8,3.2-3.9c1.3-1,2.8-1.9,4.3-2.6c1.5-0.8,3-1.4,4.6-2c1.6-0.6,3.2-1,4.8-1.4c0.5-0.1,1-0.1,1.5-0.1
			c0.5,0.1,1,0.4,1.4,0.8c0.6,0.7,1.1,1.5,1.4,2.4c0.4,0.8,0.6,1.7,0.8,2.5c0.1,1,0,1.9-0.4,2.8c-0.4,0.8-0.8,1.5-1.2,2.2l-1.2,2.2
			c-0.8,1.5-1.6,2.9-2.4,4.3c-0.8,1.5-1.9,2.8-3.3,3.9c-2.8,1.9-5.8,3.2-8.7,4.7c-0.7,0.4-1.5,0.8-2.2,1.2c-0.7,0.5-1.6,0.6-2.4,0.2
			c-0.7-0.4-1.3-1-1.8-1.7C45.8,60,45.4,59.3,45,58.6z M45,58.6c0.5,0.7,0.9,1.4,1.4,2.1c0.4,0.7,1.1,1.3,1.8,1.7
			c0.8,0.3,1.6,0.2,2.3-0.2c0.7-0.4,1.4-0.9,2.1-1.3c2.8-1.7,5.8-3.2,8.4-5.2c1.2-1,2.2-2.3,2.9-3.8l2.2-4.4c0.7-1.5,1.5-3,2.2-4.4
			c0.3-0.6,0.4-1.3,0.3-2c-0.1-0.7-0.4-1.5-0.7-2.2c-0.2-0.7-0.6-1.3-1-1.9c-0.4-0.4-1.1-0.6-1.6-0.4c-1.6,0.3-3.2,0.7-4.7,1.2
			c-1.6,0.5-3.1,1.1-4.6,1.7c-1.5,0.6-2.9,1.4-4.3,2.3c-1.3,1-2.4,2.2-3.2,3.5c-0.9,1.4-1.8,2.8-2.6,4.2c-1,1.3-1.7,2.8-2.2,4.4
			c-0.1,0.8-0.1,1.7,0.2,2.4C44.1,57.2,44.5,57.9,45,58.6z"/>
		<path class="st4" d="M39.6,58.5c0.3,1,0.7,1.9,1.2,2.8C40,60.6,39.5,59.6,39.6,58.5z"/>
		<path class="st4" d="M38.3,58.6c0.3,0.9,0.7,1.8,1.2,2.7C38.7,60.7,38.2,59.7,38.3,58.6z"/>
		<path class="st4" d="M37,59.1c0.1,0.7,0.4,1.5,0.7,2.2C37.1,60.8,36.8,59.9,37,59.1z"/>
		<path class="st4" d="M35.3,59.7c0.2,0.3,0.3,0.7,0.5,1s0.3,0.7,0.5,1c-0.3-0.2-0.6-0.5-0.7-0.9C35.4,60.4,35.3,60.1,35.3,59.7z"/>
		<path class="st4" d="M34.2,60.5c0.2,0.5,0.4,1,0.7,1.5C34.4,61.7,34.1,61,34.2,60.5z"/>
		<path class="st4" d="M33.4,61.3c0.3,0.6,0.5,1.2,0.8,1.8C33.6,62.7,33.3,62,33.4,61.3z"/>
		<path class="st4" d="M32.3,62c0.2,0.9,0.7,1.8,1.3,2.6C32.7,64,32.2,63,32.3,62z"/>
		<path class="st4" d="M31.3,63.3c0.2,0.3,0.4,0.7,0.6,1s0.4,0.7,0.5,1c-0.3-0.2-0.6-0.6-0.8-0.9C31.5,64,31.4,63.7,31.3,63.3z"/>
		<path class="st4" d="M30.8,64.6c-0.1,0.2,0,0.4,0,0.5s0.2,0.3,0.3,0.5c0.2,0.3,0.4,0.7,0.6,1c-0.3-0.2-0.6-0.5-0.8-0.9
			c-0.1-0.2-0.2-0.4-0.3-0.6C30.6,65,30.6,64.7,30.8,64.6z"/>
		<path class="st4" d="M30.2,66.1c0.1,0.8,0.4,1.5,0.8,2.1C30.3,67.8,30,66.9,30.2,66.1z"/>
		<path class="st4" d="M43.4,53.3c0.3,0.7,0.8,1.3,1.4,1.8C44,54.9,43.5,54.1,43.4,53.3z"/>
		<path class="st4" d="M44,52.5c0.3,0.3,0.6,0.6,0.8,0.8s0.6,0.5,0.9,0.8C44.9,54,44.3,53.3,44,52.5z"/>
		<path class="st4" d="M44.7,51.5c0.4,0.6,1,1.1,1.6,1.5C45.4,52.8,44.8,52.2,44.7,51.5z"/>
		<path class="st4" d="M45.3,50.1c0.2,0.6,0.5,1.1,1,1.5c-0.7-0.1-1.1-0.7-1-1.4C45.3,50.1,45.3,50.1,45.3,50.1z"/>
		<path class="st4" d="M46,49.5c0.4,0.4,0.7,0.7,1.1,1C46.6,50.4,46.1,50,46,49.5z"/>
		<path class="st4" d="M46.7,48.4c0.3,0.4,0.6,0.8,1,1.1C47.1,49.5,46.7,49,46.7,48.4z"/>
		<path class="st4" d="M47.4,47.4c0.3,0.5,0.7,1,1.2,1.4C47.9,48.7,47.4,48.1,47.4,47.4z"/>
		<path class="st4" d="M47.9,46.2c0.5,0.6,1,1.1,1.6,1.7C48.8,47.6,48.2,47,47.9,46.2z"/>
		<path class="st4" d="M48.7,45.2c0.6,0.7,1.3,1.3,2,1.9C49.8,46.7,49,46,48.7,45.2z"/>
		<path class="st4" d="M49.5,44.1c0.7,0.8,1.6,1.5,2.5,2.1C50.9,45.9,50,45.1,49.5,44.1z"/>
		<path class="st4" d="M50.3,43.2c0.6,0.6,1.3,1,2,1.4C51.4,44.5,50.7,44,50.3,43.2z"/>
		<path class="st4" d="M51.2,42c0.3,0.3,0.7,0.7,1,1s0.7,0.6,1,1c-0.5-0.2-0.9-0.5-1.2-0.8C51.6,42.9,51.3,42.4,51.2,42z"/>
		<path class="st4" d="M52.3,41.3c0.4,0.5,0.9,1,1.4,1.4C53,42.6,52.4,42.1,52.3,41.3z"/>
		<path class="st4" d="M53.2,40.4c0.5,0.7,1.2,1.3,1.9,1.7C54.2,42,53.4,41.3,53.2,40.4z"/>
		<path class="st4" d="M54.4,40.2c0.4,0.2,0.7,0.5,1,0.7c0.3,0.3,0.5,0.6,0.8,0.9c-0.3-0.2-0.7-0.5-1-0.7
			C54.9,40.8,54.6,40.5,54.4,40.2z"/>
		<path class="st4" d="M56,39.5c0.3,0.8,0.9,1.5,1.7,1.9C56.7,41.3,56,40.5,56,39.5z"/>
		<path class="st4" d="M57.1,38.9c0.3,0.7,0.9,1.3,1.6,1.7C57.8,40.5,57.1,39.8,57.1,38.9z"/>
		<path class="st4" d="M58,38.3c0.3,0.3,0.6,0.5,0.9,0.8c0.3,0.3,0.6,0.6,0.8,0.9c-0.4-0.2-0.7-0.5-1-0.8C58.5,39,58.2,38.7,58,38.3
			z"/>
		<path class="st4" d="M59.8,37.8c0.2,0.8,0.7,1.4,1.4,1.8C60.3,39.4,59.7,38.6,59.8,37.8z"/>
		<path class="st4" d="M60.8,37.3c0.6,0.7,1.3,1.3,2.1,1.7C62,38.9,61.1,38.3,60.8,37.3z"/>
		<path class="st4" d="M62.3,37c0.5,0.7,1.2,1.2,2,1.6C63.4,38.5,62.6,37.9,62.3,37z"/>
		<path class="st4" d="M63.8,36.2c0.1,0.4,0.3,0.7,0.7,1c0.3,0.3,0.7,0.5,1,0.7c-0.4-0.1-0.9-0.3-1.2-0.5c-0.2-0.2-0.3-0.3-0.4-0.6
			C63.7,36.6,63.7,36.4,63.8,36.2z"/>
		<path class="st4" d="M65.4,35.9c-0.1,0.3,0.1,0.5,0.3,0.7s0.4,0.3,0.6,0.5c0.4,0.3,0.8,0.7,1.3,1c-0.5-0.2-1-0.5-1.4-0.8
			c-0.2-0.2-0.4-0.4-0.6-0.6C65.4,36.5,65.2,36.1,65.4,35.9z"/>
		<path class="st4" d="M34.1,69.6c1.9-0.1,3.7-0.4,5.5-1.1C38,69.5,36,69.9,34.1,69.6z"/>
		<path class="st4" d="M66.5,39.3c0.3,0.5,0.5,1.1,0.5,1.7c0,0.6-0.1,1.2-0.2,1.8c-0.3,1.1-0.8,2.2-1.1,3.3c0.2-1.2,0.5-2.3,0.9-3.4
			c0.2-0.6,0.3-1.1,0.3-1.7C66.8,40.5,66.7,39.9,66.5,39.3z"/>
	</g>
</g>
</svg>
