<?xml version="1.0" encoding="UTF-8"?>
<svg id="_Слой_2" data-name="Слой 2" xmlns="http://www.w3.org/2000/svg" viewBox="0 0 458.49 67.52">
  <defs>
    <style>
      .cls-1 {
        fill: none;
        stroke: #231f20;
        stroke-miterlimit: 10;
      }
    </style>
  </defs>
  <g id="Layer_1" data-name="Layer 1">
    <g>
      <path d="M9.86,67.52c-.94,0-1.83-.19-2.69-.58-3.88-1.79-6.21-5.44-6.98-10.94-.13-.85-.19-1.73-.19-2.62,0-3.16,.8-6.79,2.4-10.91,1.6-4.12,3.89-7.43,6.88-9.95l1.73-1.34-1.41-.77c-.98-.55-1.81-1.24-2.5-2.05-.81-.94-1.22-1.88-1.22-2.82,0-1.66,.55-3.82,1.66-6.46,2.3-4.95,5.35-9.37,9.15-13.25C20.5,1.94,23.74,0,26.43,0c.9,0,1.78,.3,2.66,.9,.87,.6,1.48,1.32,1.82,2.18,.34,.85,.53,2.05,.58,3.58,0,1.54-.17,2.94-.51,4.22-.55,1.79-1.4,3.75-2.53,5.89-1.13,2.13-2.21,3.78-3.23,4.93-.73,.77-1.26,1.29-1.6,1.57-.34,.28-.73,.42-1.15,.42-.64,0-1.24-.21-1.79-.64l-.58-.7c2.77-2.39,5.35-6.48,7.74-12.29,.3-.81,.55-1.77,.77-2.88,.21-1.11,.32-2.22,.32-3.33,0-.81-.17-1.22-.51-1.22-.43,0-1.2,.4-2.3,1.18-1.11,.79-2.33,1.82-3.65,3.1-4.35,4.27-7.89,9.32-10.62,15.17-1.45,3.07-2.18,5.04-2.18,5.89,0,.3,.1,.53,.29,.7,.19,.17,.78,.41,1.76,.7,.98,.3,1.98,.58,3.01,.83,.38,.09,.77,.25,1.15,.48s.67,.48,.86,.74c.19,.26,.29,.45,.29,.58,0,.17-.14,.31-.42,.42-.28,.11-.52,.16-.74,.16-.6,0-1.58,.77-2.94,2.3-2.65,2.9-4.78,6.68-6.4,11.33-1.24,3.63-1.86,6.95-1.86,9.98,0,.81,.04,1.62,.13,2.43,.08,.81,.23,1.49,.45,2.05,.21,.55,.58,1.15,1.09,1.79,1.41,1.71,2.69,2.56,3.84,2.56,.68,0,1.88-.62,3.58-1.86,1.37-1.02,2.75-2.24,4.16-3.65,2.09-2.13,4.76-5.21,8-9.22,3.24-4.01,6.21-7.98,8.9-11.9,.51-.68,1-1.02,1.47-1.02,.34,0,.65,.15,.93,.45,.28,.3,.42,.51,.42,.64v.19l-3.39,4.61c-7.51,10.28-12.84,16.85-16,19.71-1.62,1.45-3.01,2.56-4.16,3.33-1.49,.81-2.9,1.22-4.22,1.22Z"/>
      <path d="M31.36,58.24c-.3,0-.64-.15-1.02-.45-.21-.17-.36-.33-.45-.48-.08-.15-.13-.48-.13-.99v-.64c.34-2.6,1.08-5.79,2.21-9.57,1.13-3.78,2.42-7.37,3.87-10.78,3.24-7.42,7.03-14.21,11.36-20.35,4.33-6.14,7.48-9.22,9.44-9.22,1.41,0,2.2,.79,2.37,2.37,0,1.45-.7,3.8-2.11,7.04-2.73,6.1-6.14,11.39-10.24,15.87-1.79,1.96-3.26,3.24-4.42,3.84-.94,.47-1.54,.83-1.79,1.09l-.51,1.41c-.9,2.18-1.66,4.12-2.3,5.82l-.7,2.11c.13,0,.64-.64,1.54-1.92,4.65-6.27,8.23-9.41,10.75-9.41h.06c1.02,.13,1.88,.77,2.56,1.92,.21,.34,.32,.79,.32,1.34,0,1.54-.38,3.07-1.15,4.61l-1.02,2.11c.3,0,.9-.3,1.79-.9,1.54-.85,3.37-1.81,5.5-2.88,3.2-1.58,5.14-2.41,5.82-2.5,.3,0,.61,.09,.93,.26,.32,.17,.48,.36,.48,.58v.06c-.13,.21-1.07,.77-2.82,1.66-8.66,4.1-13.89,7.04-15.68,8.83-2.35,2.22-4.42,3.33-6.21,3.33-.51,0-.97-.1-1.38-.29-.41-.19-.61-.42-.61-.67,0-.09,.07-.26,.22-.51s.82-.77,2.02-1.54c1.45-.9,2.79-2.11,4.03-3.65,2.26-3.07,3.73-5.7,4.42-7.87l.51-1.73s-.09-.06-.26-.06c-.34,0-1.07,.43-2.18,1.28-2.26,1.83-4.99,5.16-8.19,9.98-1.92,2.94-3.44,5.48-4.54,7.62-1.02,2.18-1.86,3.26-2.5,3.26Zm11.14-26.62c.26,0,1.64-1.45,4.16-4.35,3.5-4.05,6.27-8.51,8.32-13.38,1.07-2.6,1.6-4.2,1.6-4.8,0-.13-.02-.21-.06-.26-.51,.17-2.13,2.28-4.86,6.34-1.83,2.69-3.73,5.85-5.7,9.47-2.35,4.35-3.52,6.66-3.52,6.91,0,.04,.02,.06,.06,.06Z"/>
      <path d="M70.08,41.98c-.85,.64-1.96,1.56-3.33,2.75s-1.92,2.13-1.66,2.82c0,.34,.11,.51,.32,.51,1.24,0,3.84-1.37,7.81-4.1,2.35-1.66,4.48-3.11,6.4-4.35l.26-.19c.73-.47,1.3-.82,1.73-1.06,.43-.23,.77-.35,1.02-.35,.13,0,.29,.04,.48,.13,.19,.09,.35,.19,.48,.32,.13,.13,.19,.24,.19,.32,0,.21-.68,.79-2.05,1.73l-3.01,2.11-3.01,2.18c-4.4,3.33-7.62,4.99-9.66,4.99-.81,0-1.54-.2-2.18-.61-.64-.41-1.08-.86-1.31-1.38-.24-.51-.27-1.27-.1-2.27,.17-1,.82-2.2,1.95-3.58,1.13-1.39,2.91-2.55,5.34-3.49,1.15-.55,2.04-1,2.66-1.34,.62-.34,.97-.87,1.06-1.6-.17-.47-.5-.67-.99-.61-.49,.06-.95,.17-1.38,.32-.43,.15-.79,.27-1.09,.35-.64,.34-1.38,.82-2.21,1.44-.83,.62-1.61,1.21-2.34,1.76-.73,.55-1.18,.98-1.38,1.28-.19,.3-.41,.53-.64,.7s-.39,.26-.48,.26c-.21,0-.46-.06-.74-.19s-.53-.35-.77-.67c-.23-.32-.35-.59-.35-.8,0-1.24,1.04-2.62,3.14-4.16,2.52-1.88,4.86-2.82,7.04-2.82,1.62,0,2.84,.7,3.65,2.11,.38,.51,.58,1.11,.58,1.79,.04,1.07-.28,1.69-.96,1.86-.98,.64-1.76,1.28-2.34,1.92-.58,.64-1.29,1.28-2.14,1.92Z"/>
      <path d="M85.76,50.11c-.85,0-1.66-.19-2.43-.58-2.05-1.11-3.07-2.82-3.07-5.12,0-1.92,.75-4.1,2.24-6.53,1.79-3.03,3.56-4.54,5.31-4.54l.26,.13c2.35,.51,3.52,1.79,3.52,3.84,0,.85-.28,1.92-.83,3.2-.38,.9-.82,1.59-1.31,2.08-.49,.49-1.18,.74-2.08,.74-.6,0-1.15-.15-1.66-.45-.3-.21-.51-.32-.64-.32s-.24,.09-.32,.26c-.6,1.07-.9,2.28-.9,3.65,0,1.24,.3,1.86,.9,1.86,.26,0,.77-.13,1.54-.38,2.86-.85,6.25-2.79,10.18-5.82,2.39-1.75,3.92-2.96,4.61-3.65,.51-.51,.96-.77,1.34-.77,.3,0,.58,.15,.83,.45,.13,.17,.19,.34,.19,.51,0,.13-.08,.32-.22,.58s-.67,.73-1.57,1.41l-4.99,4.03c-.64,.47-1.3,.96-1.98,1.47-.68,.51-1.3,.94-1.86,1.28-2.94,1.79-5.29,2.69-7.04,2.69Zm.64-8.38c.34,0,.77-.34,1.28-1.02,1.02-1.37,1.54-2.71,1.54-4.03v-.96l-1.02,.9c-.47,.47-1.02,1.34-1.66,2.62l-.13,.19c-.26,.51-.45,.92-.58,1.22-.13,.3-.19,.51-.19,.64,0,.09,.04,.15,.13,.19,.21,.17,.43,.26,.64,.26Z"/>
      <path d="M114.24,37.57c.38-.81,.85-1.64,1.41-2.5,.17-.21,.32-.43,.45-.64,.98-1.37,1.81-2.05,2.5-2.05,.51,0,1.07,.32,1.66,.96l.96,.9c-1.92,2.43-3.26,4.36-4.03,5.79-.77,1.43-1.21,2.46-1.31,3.1-.11,.64-.14,1.2-.1,1.66,.04,.47,.12,.78,.22,.93s.31,.22,.61,.22c1.88,0,5.23-2.26,10.05-6.78,1.58-1.41,2.58-2.11,3.01-2.11,.6,0,.9,.19,.9,.58,0,.6-.79,1.64-2.37,3.14-4.57,4.48-8.13,6.72-10.69,6.72s-4.14-1.13-4.61-3.39c-.04-.64-.04-1.3,0-1.98-.09,.04-.19,.11-.32,.19-1.37,1.15-2.86,1.81-4.48,1.98-1.28,.13-2.99-.11-5.12-.7-.21,.55-.38,1-.51,1.34-.09,.34-.19,.66-.32,.96v.06l-.13,.32c-.21,.64-.45,1.24-.7,1.79-.17,.47-.46,.94-.86,1.41-.41,.47-.65,.7-.74,.7-.34,0-.77-.21-1.28-.64l-.7-.77,.7-3.07c.13-.47,.26-.92,.38-1.34,.38-2.09,1.13-4.31,2.24-6.66,1.11-2.39,1.92-3.73,2.43-4.03,.21-.13,.45-.19,.7-.19,.81,0,1.51,.3,2.11,.9,.21,.21,.32,.41,.32,.58,0,.21-.21,.79-.64,1.73-.13,.13-.64,1.28-1.54,3.46-.09,.17-.15,.32-.19,.45,2.13,.6,4.07,.68,5.82,.26,1.28-.85,2.67-1.94,4.16-3.26Z"/>
      <path d="M129.98,50.05c-.68,0-1.33-.2-1.95-.61-.62-.41-1.12-.99-1.5-1.76-.38-.77-.58-1.56-.58-2.37,0-1.88,.51-4.1,1.54-6.66,1.49-3.71,2.94-5.57,4.35-5.57,.13,0,.37,.01,.74,.03,.36,.02,.78,.2,1.25,.54,.08,.04,.18,.11,.29,.19,.11,.09,.18,.17,.22,.26,.04,.09,.06,.19,.06,.32,0,.3-.43,1.45-1.28,3.46-.3,.43-.81,1.69-1.54,3.78-1.07,2.9-1.6,4.67-1.6,5.31,0,.17,.04,.26,.13,.26,.04,0,.15-.04,.32-.13,.17-.08,.57-.46,1.18-1.12,.62-.66,1.63-1.85,3.04-3.55,1.41-1.71,2.76-3.38,4.06-5.02,1.3-1.64,2.1-2.67,2.4-3.07,.3-.41,.7-.61,1.22-.61s1.02,.17,1.54,.51l.64,.58-1.15,3.71c-1.62,4.74-2.43,7.64-2.43,8.7,0,.34,.06,.51,.19,.51,.73,0,3.63-2.07,8.7-6.21,1.45-1.24,2.6-2.17,3.46-2.78,.85-.62,1.49-.93,1.92-.93,.34,0,.6,.13,.77,.38l.06,.13c0,.13-.07,.3-.22,.51-.15,.21-.53,.62-1.15,1.22-.62,.6-1.5,1.41-2.66,2.43l-2.24,2.05c-1.66,1.49-2.82,2.5-3.46,3.01-2.01,1.58-3.78,2.37-5.31,2.37-.73,0-1.44-.21-2.14-.64s-1.18-.9-1.44-1.41c-.26-.51-.38-1.11-.38-1.79l.06-2.43-2.56,3.33c-1.58,2.05-3.09,3.07-4.54,3.07Z"/>
      <path d="M156.41,50.05c-.68,0-1.33-.2-1.95-.61-.62-.41-1.12-.99-1.5-1.76-.38-.77-.58-1.56-.58-2.37,0-1.88,.51-4.1,1.54-6.66,1.49-3.71,2.94-5.57,4.35-5.57,.13,0,.37,.01,.74,.03,.36,.02,.78,.2,1.25,.54,.08,.04,.18,.11,.29,.19,.11,.09,.18,.17,.22,.26,.04,.09,.06,.19,.06,.32,0,.3-.43,1.45-1.28,3.46-.3,.43-.81,1.69-1.54,3.78-1.07,2.9-1.6,4.67-1.6,5.31,0,.17,.04,.26,.13,.26,.04,0,.15-.04,.32-.13,.17-.08,.57-.46,1.18-1.12,.62-.66,1.63-1.85,3.04-3.55,1.41-1.71,2.76-3.38,4.06-5.02,1.3-1.64,2.1-2.67,2.4-3.07,.3-.41,.7-.61,1.22-.61s1.02,.17,1.54,.51l.64,.58-1.15,3.71c-1.62,4.74-2.43,7.64-2.43,8.7,0,.34,.06,.51,.19,.51,.73,0,3.63-2.07,8.7-6.21,1.45-1.24,2.6-2.17,3.46-2.78,.85-.62,1.49-.93,1.92-.93,.34,0,.6,.13,.77,.38l.06,.13c0,.13-.07,.3-.22,.51-.15,.21-.53,.62-1.15,1.22-.62,.6-1.5,1.41-2.66,2.43l-2.24,2.05c-1.66,1.49-2.82,2.5-3.46,3.01-2.01,1.58-3.78,2.37-5.31,2.37-.73,0-1.44-.21-2.14-.64s-1.18-.9-1.44-1.41c-.26-.51-.38-1.11-.38-1.79l.06-2.43-2.56,3.33c-1.58,2.05-3.09,3.07-4.54,3.07Zm9.54-20.86c-.98,0-1.47-.28-1.47-.83,0-.47,.28-1.09,.83-1.86,2.22-3.03,3.84-4.54,4.86-4.54,.47,0,.96,.13,1.47,.38,.21,.13,.32,.3,.32,.51,0,.09-.26,.51-.77,1.28v.06c-2.43,3.03-3.88,4.65-4.35,4.86-.26,.09-.56,.13-.9,.13Z"/>
      <path d="M198.84,50.05c-.68,0-1.33-.2-1.95-.61-.62-.41-1.12-.99-1.5-1.76-.38-.77-.58-1.56-.58-2.37,0-1.88,.51-4.1,1.54-6.66,1.49-3.71,2.94-5.57,4.35-5.57,.13,0,.37,.01,.74,.03,.36,.02,.78,.2,1.25,.54,.08,.04,.18,.11,.29,.19,.11,.09,.18,.17,.22,.26,.04,.09,.06,.19,.06,.32,0,.3-.43,1.45-1.28,3.46-.3,.43-.81,1.69-1.54,3.78-1.07,2.9-1.6,4.67-1.6,5.31,0,.17,.04,.26,.13,.26,.04,0,.15-.04,.32-.13,.17-.08,.57-.46,1.18-1.12,.62-.66,1.63-1.85,3.04-3.55,1.41-1.71,2.76-3.38,4.06-5.02,1.3-1.64,2.1-2.67,2.4-3.07,.3-.41,.7-.61,1.22-.61s1.02,.17,1.54,.51l.64,.58-1.15,3.71c-1.62,4.74-2.43,7.64-2.43,8.7,0,.34,.06,.51,.19,.51,.73,0,3.63-2.07,8.7-6.21,1.45-1.24,2.6-2.17,3.46-2.78,.85-.62,1.49-.93,1.92-.93,.34,0,.6,.13,.77,.38l.06,.13c0,.13-.07,.3-.22,.51-.15,.21-.53,.62-1.15,1.22-.62,.6-1.5,1.41-2.66,2.43l-2.24,2.05c-1.66,1.49-2.82,2.5-3.46,3.01-2.01,1.58-3.78,2.37-5.31,2.37-.73,0-1.44-.21-2.14-.64s-1.18-.9-1.44-1.41c-.26-.51-.38-1.11-.38-1.79l.06-2.43-2.56,3.33c-1.58,2.05-3.09,3.07-4.54,3.07Z"/>
      <path d="M248.12,67.52c-.94,0-1.83-.19-2.69-.58-3.88-1.79-6.21-5.44-6.98-10.94-.13-.85-.19-1.73-.19-2.62,0-3.16,.8-6.79,2.4-10.91,1.6-4.12,3.89-7.43,6.88-9.95l1.73-1.34-1.41-.77c-.98-.55-1.81-1.24-2.5-2.05-.81-.94-1.22-1.88-1.22-2.82,0-1.66,.55-3.82,1.66-6.46,2.3-4.95,5.35-9.37,9.15-13.25,3.8-3.88,7.04-5.82,9.73-5.82,.9,0,1.78,.3,2.66,.9,.87,.6,1.48,1.32,1.82,2.18,.34,.85,.53,2.05,.58,3.58,0,1.54-.17,2.94-.51,4.22-.55,1.79-1.4,3.75-2.53,5.89-1.13,2.13-2.21,3.78-3.23,4.93-.73,.77-1.26,1.29-1.6,1.57-.34,.28-.73,.42-1.15,.42-.64,0-1.24-.21-1.79-.64l-.58-.7c2.77-2.39,5.35-6.48,7.74-12.29,.3-.81,.55-1.77,.77-2.88,.21-1.11,.32-2.22,.32-3.33,0-.81-.17-1.22-.51-1.22-.43,0-1.2,.4-2.3,1.18-1.11,.79-2.33,1.82-3.65,3.1-4.35,4.27-7.89,9.32-10.62,15.17-1.45,3.07-2.18,5.04-2.18,5.89,0,.3,.1,.53,.29,.7,.19,.17,.78,.41,1.76,.7,.98,.3,1.98,.58,3.01,.83,.38,.09,.77,.25,1.15,.48s.67,.48,.86,.74c.19,.26,.29,.45,.29,.58,0,.17-.14,.31-.42,.42-.28,.11-.52,.16-.74,.16-.6,0-1.58,.77-2.94,2.3-2.65,2.9-4.78,6.68-6.4,11.33-1.24,3.63-1.86,6.95-1.86,9.98,0,.81,.04,1.62,.13,2.43,.08,.81,.23,1.49,.45,2.05,.21,.55,.58,1.15,1.09,1.79,1.41,1.71,2.69,2.56,3.84,2.56,.68,0,1.88-.62,3.58-1.86,1.37-1.02,2.75-2.24,4.16-3.65,2.09-2.13,4.76-5.21,8-9.22,3.24-4.01,6.21-7.98,8.9-11.9,.51-.68,1-1.02,1.47-1.02,.34,0,.65,.15,.93,.45,.28,.3,.42,.51,.42,.64v.19l-3.39,4.61c-7.51,10.28-12.84,16.85-16,19.71-1.62,1.45-3.01,2.56-4.16,3.33-1.49,.81-2.9,1.22-4.22,1.22Z"/>
      <path d="M269.63,58.24c-.3,0-.64-.15-1.02-.45-.21-.17-.36-.33-.45-.48-.08-.15-.13-.48-.13-.99v-.64c.34-2.6,1.08-5.79,2.21-9.57,1.13-3.78,2.42-7.37,3.87-10.78,3.24-7.42,7.03-14.21,11.36-20.35,4.33-6.14,7.48-9.22,9.44-9.22,1.41,0,2.2,.79,2.37,2.37,0,1.45-.7,3.8-2.11,7.04-2.73,6.1-6.14,11.39-10.24,15.87-1.79,1.96-3.26,3.24-4.42,3.84-.94,.47-1.54,.83-1.79,1.09l-.51,1.41c-.9,2.18-1.66,4.12-2.3,5.82l-.7,2.11c.13,0,.64-.64,1.54-1.92,4.65-6.27,8.23-9.41,10.75-9.41h.06c1.02,.13,1.88,.77,2.56,1.92,.21,.34,.32,.79,.32,1.34,0,1.54-.38,3.07-1.15,4.61l-1.02,2.11c.3,0,.9-.3,1.79-.9,1.54-.85,3.37-1.81,5.5-2.88,3.2-1.58,5.14-2.41,5.82-2.5,.3,0,.61,.09,.93,.26,.32,.17,.48,.36,.48,.58v.06c-.13,.21-1.07,.77-2.82,1.66-8.66,4.1-13.89,7.04-15.68,8.83-2.35,2.22-4.42,3.33-6.21,3.33-.51,0-.97-.1-1.38-.29-.41-.19-.61-.42-.61-.67,0-.09,.07-.26,.22-.51s.82-.77,2.02-1.54c1.45-.9,2.79-2.11,4.03-3.65,2.26-3.07,3.73-5.7,4.42-7.87l.51-1.73s-.09-.06-.26-.06c-.34,0-1.07,.43-2.18,1.28-2.26,1.83-4.99,5.16-8.19,9.98-1.92,2.94-3.44,5.48-4.54,7.62-1.02,2.18-1.86,3.26-2.5,3.26Zm11.14-26.62c.26,0,1.64-1.45,4.16-4.35,3.5-4.05,6.27-8.51,8.32-13.38,1.07-2.6,1.6-4.2,1.6-4.8,0-.13-.02-.21-.06-.26-.51,.17-2.13,2.28-4.86,6.34-1.83,2.69-3.73,5.85-5.7,9.47-2.35,4.35-3.52,6.66-3.52,6.91,0,.04,.02,.06,.06,.06Z"/>
      <path d="M299.58,49.86c-.34,0-.74-.13-1.18-.38-.45-.26-.85-.62-1.22-1.09-.36-.47-.54-.87-.54-1.22,0-.51,.29-1.54,.86-3.07,.58-1.54,1.22-2.98,1.92-4.32s1.59-2.57,2.66-3.68c1.45-1.49,2.62-2.24,3.52-2.24,1.02,0,1.98,.34,2.88,1.02,.9,.68,1.34,1.52,1.34,2.5,0,.43,.04,.64,.13,.64,.04,0,.26-.15,.64-.45,.38-.3,.87-.68,1.47-1.15,.6-.47,1.22-.94,1.86-1.41l1.09,.7c.81,.38,1.22,.98,1.22,1.79-.04,.81-.47,2.26-1.28,4.35-1.15,2.86-1.73,4.61-1.73,5.25,0,.17,.04,.26,.13,.26,.98,0,4.1-2.09,9.34-6.27,.94-.81,1.78-1.48,2.53-2.02,.75-.53,1.21-.8,1.38-.8,.3,0,.6,.12,.9,.35,.3,.24,.45,.46,.45,.67,0,.09-.51,.6-1.54,1.54-2.3,2.13-4.76,4.18-7.36,6.14-2.13,1.66-3.86,2.5-5.18,2.5-1.11,0-2.11-.45-3.01-1.34-.47-.43-.76-.78-.86-1.06-.11-.28-.16-.76-.16-1.44,0-1.36,.45-3.11,1.34-5.25l.06-.19s-.02-.06-.06-.06c-.17,0-.83,.53-1.98,1.6-3.24,2.99-5.31,4.93-6.21,5.82-1.11,1.02-1.79,1.62-2.05,1.79-.43,.34-.88,.51-1.34,.51Zm1.6-3.84l3.14-2.88,3.26-2.88,.06-.13c0-.08-.09-.26-.26-.51-.3-.6-.45-1.06-.45-1.38s-.11-.48-.32-.48l-.06,.06c-.34,.17-.92,.82-1.73,1.95-.81,1.13-1.58,2.38-2.3,3.74l-1.34,2.5Z"/>
    </g>
    <line class="cls-1" x1="458.49" y1="40.29" x2="352.46" y2="40.29"/>
  </g>
</svg>