<?xml version="1.0" encoding="UTF-8"?>
<svg id="_Слой_2" data-name="Слой 2" xmlns="http://www.w3.org/2000/svg" viewBox="0 0 234.9 107.2">
  <g id="Layer_1" data-name="Layer 1">
    <g>
      <path d="M12.5,106.9c-.13,0-.37-.1-.7-.3-.33-.2-.73-.4-1.2-.6-1.13-.47-1.9-1.23-2.3-2.3-.6-1.27-.9-4-.9-8.2,0-1.93,.13-3.93,.4-6,.27-2.07,1.03-5.33,2.3-9.8,.93-3.13,1.4-5.1,1.4-5.9,0-.33-.12-.53-.35-.6-.23-.07-.55-.28-.95-.65-.4-.37-.68-.72-.85-1.05-.17-.33-.25-.57-.25-.7,0-.07,.02-.13,.05-.2,.03-.07,.25-.13,.65-.2l2.2,.2h.55c.23,0,.38-.13,.45-.4,.73-2.07,2.13-5.8,4.2-11.2l7.3-19c2.8-6.6,5.7-12.85,8.7-18.75,3-5.9,5.2-9.58,6.6-11.05,.6-.53,1.07-.8,1.4-.8,.27,0,.67,.13,1.2,.4,1.07,.53,1.75,1.03,2.05,1.5,.3,.47,.45,.9,.45,1.3l-.1,.8c-.13,.6-1.8,4.54-5,11.8-2.67,6.4-4.97,11.73-6.9,16-2.2,5.53-4.23,10.83-6.1,15.9-2.87,7.6-4.3,11.53-4.3,11.8,0,.07,.07,.1,.2,.1,.73,0,2.43-.77,5.1-2.3,8.13-4.6,15.23-11.03,21.3-19.3,5-6.73,8.53-13.7,10.6-20.9,.8-3,1.2-6,1.2-9,0-4.87-1.07-8.37-3.2-10.5-1.6-1.47-4.03-2.2-7.3-2.2-1.93,0-3.97,.27-6.1,.8-8.6,2.4-16.68,7.62-24.25,15.65-7.57,8.03-12.85,17.02-15.85,26.95-.2,.73-.42,1.45-.65,2.15-.23,.7-.43,1.33-.6,1.9-.17,.57-.32,.85-.45,.85-.07,0-.22-.03-.45-.1-.23-.07-.6-.18-1.1-.35-.5-.17-.78-.38-.85-.65-.07-.27-.1-.57-.1-.9,0-1.33,.27-2.87,.8-4.6,3.27-11.47,9.53-21.63,18.8-30.5C27.73,8.27,36.17,3.53,44.9,1.8c1.13-.13,2.23-.2,3.3-.2,7.27,0,12.77,3.43,16.5,10.3,0,.07,.03,.1,.1,.1,.4,.87,.72,1.62,.95,2.25,.23,.63,.38,1.47,.45,2.5,.07,1.03,.1,2.65,.1,4.85s-.03,3.77-.1,4.9c-.13,1.87-.67,4.07-1.6,6.6-3.33,9.4-8.97,18-16.9,25.8-7.73,7.54-15.8,12.43-24.2,14.7-.6,.2-.93,.33-1,.4v.1c0,.33,.52,1.47,1.55,3.4,1.03,1.93,2.3,4.12,3.8,6.55,1.5,2.43,2.82,4.42,3.95,5.95,5.73,7.73,10.5,11.6,14.3,11.6,.87,0,1.55,.1,2.05,.3,.5,.2,.75,.4,.75,.6l-.1,.2c-.67,.6-2.3,.9-4.9,.9-4.27,0-8.47-2.1-12.6-6.3-1.93-2-3.95-4.47-6.05-7.4s-3.58-5.33-4.45-7.2c-1-2.13-1.57-3.2-1.7-3.2-.07,0-.3,.67-.7,2-1.33,4.47-2.33,8.5-3,12.1-1.07,5.33-1.6,8.77-1.6,10.3l.1,1.1c0,.33-.13,.73-.4,1.2-.27,.46-.6,.7-1,.7Z"/>
      <path d="M73.6,102.2c-1.33,0-2.38-.1-3.15-.3-.77-.2-1.65-.63-2.65-1.3-3.07-1.53-4.6-3.8-4.6-6.8,0-3.2,.7-4.83,2.1-4.9,.8,0,1.48,.32,2.05,.95,.57,.63,.85,1.25,.85,1.85l-.1,.5c-.27,.67-.4,1.4-.4,2.2,0,.27,.02,.75,.05,1.45,.03,.7,.32,1.35,.85,1.95,.07,.07,.17,.18,.3,.35,.13,.17,.27,.3,.4,.4,.13,.1,.3,.15,.5,.15,.27,0,.83-.13,1.7-.4,3.93-1.27,7.85-3.4,11.75-6.4,3.9-3,6.58-5.93,8.05-8.8,.87-1.6,1.3-2.87,1.3-3.8,0-.53-.33-1.05-1-1.55-.67-.5-3.73-.75-9.2-.75-4.87,0-8.38-.23-10.55-.7-2.17-.47-4.02-1.3-5.55-2.5-2.8-1.87-4.2-4.83-4.2-8.9,0-1.13,.1-2.3,.3-3.5,2.07-11.6,8.63-24.9,19.7-39.9,2.4-3,5.4-6.3,9-9.9,3.6-3.6,6.47-6.13,8.6-7.6,3.93-2.67,7.47-4,10.6-4,3.93,0,6.9,1.93,8.9,5.8,1.13,2.2,1.7,4.63,1.7,7.3s-.75,6.67-2.25,12c-1.5,5.33-3.22,10.1-5.15,14.3-2.73,5.67-5.97,10.63-9.7,14.9-3.73,4.27-6.77,6.4-9.1,6.4-.87,0-1.7-.15-2.5-.45-.8-.3-1.2-.65-1.2-1.05,0-.13,.08-.27,.25-.4,.17-.13,.38-.2,.65-.2,.67,0,1.77-.53,3.3-1.6,1.53-1.07,2.97-2.27,4.3-3.6,8.07-8.67,13.57-19.96,16.5-33.9,.53-2.87,.8-5.37,.8-7.5s-.25-3.92-.75-5.35c-.5-1.43-1.02-2.35-1.55-2.75-.33-.2-.8-.3-1.4-.3l-1.1,.1c-3.93,.93-8.65,4.33-14.15,10.2-5.5,5.87-10.77,12.82-15.8,20.85-5.03,8.03-8.75,15.78-11.15,23.25-1.47,4.6-2.2,8.1-2.2,10.5,0,2.13,.55,3.4,1.65,3.8s4.12,.67,9.05,.8c3.87,.07,6.78,.28,8.75,.65,1.97,.37,3.68,.98,5.15,1.85,3.07,1.53,4.6,3.57,4.6,6.1,0,1.4-.47,2.93-1.4,4.6-2.87,5.4-8.04,9.97-15.5,13.7l-.2,.1c-1.73,.87-3.02,1.43-3.85,1.7-.83,.27-1.95,.4-3.35,.4Z"/>
      <path d="M128.4,107.2l-1.7-.9c-1.54-.73-2.7-2.2-3.5-4.4-.27-.6-.4-2.17-.4-4.7l.1-5.6c0-5.53,.3-12.63,.9-21.3,2.4-20.53,3.83-33.53,4.3-39,.27-4,.73-9.2,1.4-15.6,.67-6,1-9.1,1-9.3s.5-.3,1.5-.3c.93,0,1.88,.45,2.85,1.35,.97,.9,1.65,1.98,2.05,3.25,.53,2.33,.8,5.67,.8,10,0,6.87-.7,16.27-2.1,28.2-2.27,18.54-3.67,29.6-4.2,33.2-.2,1.27-.6,4.53-1.2,9.8-.33,3.07-.5,5.33-.5,6.8,.53-.07,2.87-4.72,7-13.95,4.13-9.23,8.96-20.48,14.5-33.75,6.07-14.73,11.07-25.75,15-33.05,3.93-7.3,7.57-12.32,10.9-15.05,1.47-1.27,2.5-1.93,3.1-2l1.1,.1c1.53,.4,2.3,1.07,2.3,2l-.1,.3c-.07,.27-.5,.4-1.3,.4s-2.8,2.27-6,6.8c-3.2,4.53-6.23,9.57-9.1,15.1-1.33,2.67-4.6,10.1-9.8,22.3-5.2,12.2-7.8,18.5-7.8,18.9s-2.07,5.2-6.2,14.4c-6.8,15.07-10.83,23.3-12.1,24.7-.4,.4-.83,.67-1.3,.8l-1.5,.5Z"/>
      <path d="M181.2,106.9c-.53,0-1.28-.27-2.25-.8-.97-.53-1.62-1.33-1.95-2.4-.6-1.47-.9-3.83-.9-7.1,0-4.33,1-9.97,3-16.9l1.6-5.8c-.47-.33-.92-.65-1.35-.95-.43-.3-.78-.67-1.05-1.1-.27-.43-.4-.72-.4-.85,0-.27,.1-.43,.3-.5l1,.1,2.5,.3,4.8-13c3.27-8.67,6.27-16.3,9-22.9,5.27-11.67,8.9-19.2,10.9-22.6,1.13-1.8,2.17-2.7,3.1-2.7,.53,0,1.1,.17,1.7,.5,1.2,.47,1.8,1.2,1.8,2.2,0,1.6-1.7,6-5.1,13.2-3.27,7.47-5.5,12.63-6.7,15.5-3.67,9.47-6.67,17.67-9,24.6l-1.3,3.6c.2,0,1.1-.4,2.7-1.2,9.67-4.87,17.9-12.1,24.7-21.7,6.53-9.2,10.17-18.23,10.9-27.1l.1-2.3c0-3.87-.8-6.85-2.4-8.95s-4.5-3.15-8.7-3.15-8.47,1.23-13.2,3.7c-7.73,4-14.62,9.75-20.65,17.25-6.03,7.5-10.12,15.38-12.25,23.65-.53,2.53-1.2,3.8-2,3.8-.4,0-.78-.2-1.15-.6-.37-.4-.55-1.03-.55-1.9s.43-2.9,1.3-6.1c2.87-9.2,7.97-17.72,15.3-25.55,7.33-7.83,15.33-13.25,24-16.25,2.47-.73,4.93-1.1,7.4-1.1h2.5c1.47,0,3.2,.45,5.2,1.35,2,.9,3.87,2.29,5.6,4.15,1.73,1.87,3,3.77,3.8,5.7,.93,2.4,1.4,5.43,1.4,9.1,0,3.07-.37,6-1.1,8.8-3.47,11.67-10.43,22.07-20.9,31.2-6.87,5.93-13.63,9.7-20.3,11.3l-3.8,1.1-2.5,8.6c-2.67,9.87-4,16.77-4,20.7v1.6c0,1-.37,1.5-1.1,1.5Z"/>
    </g>
  </g>
</svg>