<?xml version="1.0" encoding="UTF-8"?>
<svg id="_Слой_2" data-name="Слой 2" xmlns="http://www.w3.org/2000/svg" viewBox="0 0 327.09 133.5">
  <g id="Layer_1" data-name="Layer 1">
    <g>
      <path d="M36,109.2c-1.13,0-2.07-.43-2.8-1.3-1.2-1.2-1.8-4.6-1.8-10.2v-4.1c0-6.6,1.93-16.73,5.8-30.4,2.13-7.53,4.37-14.37,6.7-20.5,.87-2.4,2.33-6.07,4.4-11,3.6-8.87,6.87-16.57,9.8-23.1l.8-1.8,.2-.8c-.33,0-2.2,2.07-5.6,6.2-3.07,3.6-7.33,9.73-12.8,18.4-3.27,5.13-5.9,9.47-7.9,13-4.4,7.6-11.7,22.93-21.9,46l-4.8,10.1c-.47,.47-1.03,.7-1.7,.7-1.07,0-1.97-.33-2.7-1-1.13-1.33-1.7-4.03-1.7-8.1,0-1.93,.27-5.54,.8-10.8,.53-5.27,2.13-13.2,4.8-23.8,2.67-10.6,5.93-20.73,9.8-30.4,.87-2.13,2.08-4.75,3.65-7.85,1.57-3.1,2.75-5.3,3.55-6.6s1.53-2.02,2.2-2.15c.87,0,1.78,.32,2.75,.95,.97,.63,1.45,1.48,1.45,2.55,0,1.33-1.04,4.23-3.1,8.7-3.27,7.2-6.45,15.93-9.55,26.2-3.1,10.27-5.58,20.2-7.45,29.8-1,5.13-1.5,7.83-1.5,8.1l1.5-3.1c1-2,2.23-4.6,3.7-7.8,5.67-12.47,10.12-21.78,13.35-27.95,3.23-6.17,6.88-12.42,10.95-18.75,7.27-11.33,13.13-19.3,17.6-23.9,2.73-3,4.83-4.5,6.3-4.5,.73,0,1.43,.2,2.1,.6,1.53,.73,2.3,2.13,2.3,4.2,0,1.73-.53,3.93-1.6,6.6-2.53,6.53-6.3,16.77-11.3,30.7-3.33,9.27-5.9,17.13-7.7,23.6-2.93,10.07-4.87,18.07-5.8,24-.53,3.33-1.03,8.63-1.5,15.9l-.3,2.3c-.2,.87-.54,1.3-1,1.3Z"/>
      <path d="M74,60.9c-1.2,1.07-2.53,2.27-4,3.6-2.33,2.07-4.63,4.22-6.9,6.45-2.27,2.23-4.27,4.25-6,6.05-2.73,3.47-4.53,5.3-5.4,5.5h-.3c-.27,0-.57-.07-.9-.2-.33-.13-.6-.29-.8-.45-.2-.17-.3-.28-.3-.35-.47-1.13-.3-3.42,.5-6.85,.8-3.43,2.3-6.72,4.5-9.85,2.27-1.6,1.96,.93-.9,7.6-1.2,3.93-.87,4.77,1,2.5l2.3-2.8,6-5.3,4.4-3.9c4.8-4.53,8.87-7.43,12.2-8.7h.1l.3-.1h.3c.8,0,1.67,.5,2.6,1.5l1.5,1.4c-3,3.8-5.1,6.82-6.3,9.05-1.2,2.23-1.88,3.85-2.05,4.85-.17,1-.22,1.87-.15,2.6,.07,.73,.18,1.22,.35,1.45,.17,.23,.48,.35,.95,.35,2.93,0,8.17-3.53,15.7-10.6,2.47-2.2,4.03-3.3,4.7-3.3,.93,0,1.4,.3,1.4,.9,0,.93-1.23,2.57-3.7,4.9-7.13,7-12.7,10.5-16.7,10.5s-6.47-1.77-7.2-5.3c-.33-3.53,.6-7.37,2.8-11.5Z"/>
      <path d="M96,81.4c-.53,0-1.15-.2-1.85-.6-.7-.4-1.33-.97-1.9-1.7-.57-.73-.85-1.37-.85-1.9,0-.8,.45-2.4,1.35-4.8,.9-2.4,1.9-4.65,3-6.75,1.1-2.1,2.48-4.02,4.15-5.75,2.27-2.33,4.1-3.5,5.5-3.5,1.6,0,3.1,.53,4.5,1.6,1.4,1.07,2.1,2.37,2.1,3.9,0,.67,.07,1,.2,1,.07,0,.4-.23,1-.7,.6-.47,1.37-1.07,2.3-1.8,.93-.73,1.9-1.47,2.9-2.2l1.7,1.1c1.27,.6,1.9,1.53,1.9,2.8-.07,1.27-.73,3.53-2,6.8-1.8,4.47-2.7,7.2-2.7,8.2,0,.27,.07,.4,.2,.4,1.53,0,6.4-3.27,14.6-9.8,1.46-1.27,2.78-2.32,3.95-3.15,1.17-.83,1.88-1.25,2.15-1.25,.47,0,.93,.18,1.4,.55,.46,.37,.7,.72,.7,1.05,0,.13-.8,.93-2.4,2.4-3.6,3.33-7.43,6.53-11.5,9.6-3.33,2.6-6.03,3.9-8.1,3.9-1.73,0-3.3-.7-4.7-2.1-.73-.67-1.18-1.22-1.35-1.65-.17-.43-.25-1.18-.25-2.25,0-2.13,.7-4.87,2.1-8.2l.1-.3c0-.07-.03-.1-.1-.1-.27,0-1.3,.83-3.1,2.5-5.07,4.67-8.3,7.7-9.7,9.1-1.73,1.6-2.8,2.53-3.2,2.8-.67,.53-1.37,.8-2.1,.8Zm2.5-6l4.9-4.5,5.1-4.5,.1-.2c0-.13-.13-.4-.4-.8-.47-.93-.7-1.65-.7-2.15s-.17-.75-.5-.75l-.1,.1c-.53,.27-1.43,1.28-2.7,3.05-1.27,1.77-2.47,3.72-3.6,5.85l-2.1,3.9Z"/>
      <path d="M157.7,62.2c.6-1.27,1.33-2.57,2.2-3.9,.27-.33,.5-.67,.7-1,1.53-2.13,2.83-3.2,3.9-3.2,.8,0,1.67,.5,2.6,1.5l1.5,1.4c-3,3.8-5.1,6.82-6.3,9.05-1.2,2.23-1.88,3.85-2.05,4.85-.17,1-.22,1.87-.15,2.6,.07,.73,.18,1.22,.35,1.45,.17,.23,.48,.35,.95,.35,2.93,0,8.17-3.53,15.7-10.6,2.47-2.2,4.03-3.3,4.7-3.3,.93,0,1.4,.3,1.4,.9,0,.93-1.23,2.57-3.7,4.9-7.13,7-12.7,10.5-16.7,10.5s-6.47-1.77-7.2-5.3c-.07-1-.07-2.03,0-3.1-.13,.07-.3,.17-.5,.3-2.13,1.8-4.47,2.83-7,3.1-2,.2-4.67-.17-8-1.1-.33,.87-.6,1.57-.8,2.1-.13,.53-.3,1.03-.5,1.5v.1l-.2,.5c-.33,1-.7,1.93-1.1,2.8-.27,.73-.72,1.47-1.35,2.2-.63,.73-1.02,1.1-1.15,1.1-.53,0-1.2-.33-2-1l-1.1-1.2,1.1-4.8c.2-.73,.4-1.43,.6-2.1,.6-3.27,1.77-6.73,3.5-10.4,1.73-3.73,3-5.83,3.8-6.3,.33-.2,.7-.3,1.1-.3,1.27,0,2.37,.47,3.3,1.4,.33,.33,.5,.63,.5,.9,0,.33-.33,1.23-1,2.7-.2,.2-1,2-2.4,5.4-.13,.27-.23,.5-.3,.7,3.33,.93,6.37,1.07,9.1,.4,2-1.33,4.17-3.03,6.5-5.1Z"/>
      <path d="M185.1,133.5c-1.47,0-2.7-.27-3.7-.8-3.13-1.8-4.7-4.2-4.7-7.2,0-2.6,1.23-5.73,3.7-9.4,3.47-5.07,12.27-13.3,26.4-24.7l2.8-2.3c.47-.47,1.1-1.77,1.9-3.9,.46-1.33,1.8-4.63,4-9.9,2.2-5.27,3.3-8.03,3.3-8.3-.33,0-1.9,1.77-4.7,5.3-3.73,4.6-6.43,7.53-8.1,8.8-1,.8-1.93,1.2-2.8,1.2-.6,0-1.2-.18-1.8-.55-.6-.37-1.15-1.03-1.65-2-.5-.96-.75-1.88-.75-2.75,0-2,.57-4.5,1.7-7.5,1.13-3,2.53-5.73,4.2-8.2,1.87-2.93,3.9-4.4,6.1-4.4,.73,0,1.77,.33,3.1,1,1.33,.67,2.43,1.43,3.3,2.3l1.3,1.1,4.6-4.1c.67-.53,1.17-1,1.5-1.4,.33-.4,.7-.6,1.1-.6,.27,0,.63,.13,1.1,.4,.33,0,.87,.27,1.6,.8,.4,.4,.6,.73,.6,1,0,.93-.43,2.53-1.3,4.8l-3,8.1c-2.07,5.73-3.1,8.73-3.1,9,.07,0,.82-.57,2.25-1.7,1.43-1.13,3.17-2.5,5.2-4.1,2.03-1.6,3.98-3.17,5.85-4.7,3.53-2.93,5.98-4.83,7.35-5.7,1.37-.87,2.35-1.3,2.95-1.3l.3,.1c.87,.2,1.3,.53,1.3,1,0,.2-.2,.58-.6,1.15-.4,.57-2.1,2.02-5.1,4.35l-8.2,6.4c-2.73,2.2-7.5,5.93-14.3,11.2l-6.6,16.1c-4.53,10.4-8.67,18-12.4,22.8-4.4,5.73-9.3,8.6-14.7,8.6Zm-2.5-3.4c.8,0,1.83-.3,3.1-.9,4.13-1.87,8.37-6.77,12.7-14.7,1.2-2.4,2.8-5.73,4.8-10,2.4-5.13,3.6-7.9,3.6-8.3-.73,.13-3.8,2.6-9.2,7.4-7.4,6.53-12.3,11.7-14.7,15.5-1.6,2.53-2.4,4.97-2.4,7.3,0,2.47,.7,3.7,2.1,3.7Zm21.7-52.5c.4-.27,.8-.55,1.2-.85,.4-.3,1.8-1.88,4.2-4.75l2.2-2.7c3.67-4.4,5.5-6.7,5.5-6.9,0-.27-.53-.7-1.6-1.3-.73-.27-1.3-.4-1.7-.4h-.35c-.17,0-.32,.03-.45,.1-.87,.53-2.02,2.1-3.45,4.7-1.43,2.6-2.88,5.73-4.35,9.4l-1.2,2.7Z"/>
      <path d="M263.39,62.2c.6-1.27,1.33-2.57,2.2-3.9,.27-.33,.5-.67,.7-1,1.53-2.13,2.83-3.2,3.9-3.2,.8,0,1.67,.5,2.6,1.5l1.5,1.4c-3,3.8-5.1,6.82-6.3,9.05-1.2,2.23-1.88,3.85-2.05,4.85-.17,1-.22,1.87-.15,2.6,.07,.73,.18,1.22,.35,1.45,.17,.23,.48,.35,.95,.35,2.93,0,8.17-3.53,15.7-10.6,2.47-2.2,4.03-3.3,4.7-3.3,.93,0,1.4,.3,1.4,.9,0,.93-1.23,2.57-3.7,4.9-7.13,7-12.7,10.5-16.7,10.5s-6.47-1.77-7.2-5.3c-.07-1-.07-2.03,0-3.1-.13,.07-.3,.17-.5,.3-2.13,1.8-4.47,2.83-7,3.1-2,.2-4.67-.17-8-1.1-.33,.87-.6,1.57-.8,2.1-.13,.53-.3,1.03-.5,1.5v.1l-.2,.5c-.33,1-.7,1.93-1.1,2.8-.27,.73-.72,1.47-1.35,2.2-.63,.73-1.02,1.1-1.15,1.1-.53,0-1.2-.33-2-1l-1.1-1.2,1.1-4.8c.2-.73,.4-1.43,.6-2.1,.6-3.27,1.77-6.73,3.5-10.4,1.73-3.73,3-5.83,3.8-6.3,.33-.2,.7-.3,1.1-.3,1.27,0,2.37,.47,3.3,1.4,.33,.33,.5,.63,.5,.9,0,.33-.33,1.23-1,2.7-.2,.2-1,2-2.4,5.4-.13,.27-.23,.5-.3,.7,3.33,.93,6.37,1.07,9.1,.4,2-1.33,4.17-3.03,6.5-5.1Z"/>
      <path d="M299.39,70.9c-12.07,7.53-18.53,11.4-19.4,11.6h-.3c-.27,0-.57-.07-.9-.2-.33-.13-.6-.29-.8-.45-.2-.17-.3-.28-.3-.35-.47-1.13-.3-3.42,.5-6.85,.8-3.43,2.3-6.72,4.5-9.85,2.27-1.6,1.96,.93-.9,7.6-1.2,3.93-.6,5.47,1.8,4.6l9.2-4.7-.8-.5-.3-.3c-1-.6-1.7-1.27-2.1-2-1.4-2.07-1.73-4.53-1-7.4,.33-1.27,1.07-2.9,2.2-4.9,1.13-2,3.17-3.67,6.1-5,1.47-.47,2.8-.57,4-.3,1.07,.33,1.87,.83,2.4,1.5,.53,.67,.97,1.03,1.3,1.1,.33,.07,.63,.47,.9,1.2,0,.07,.03,.13,.1,.2,1.07-1.2,2-1.8,2.8-1.8s1.67,.5,2.6,1.5l1.5,1.4c-3,3.8-5.1,6.82-6.3,9.05-1.2,2.23-1.88,3.85-2.05,4.85-.17,1-.22,1.87-.15,2.6,.07,.73,.18,1.22,.35,1.45,.17,.23,.48,.35,.95,.35,2.93,0,8.17-3.53,15.7-10.6,2.47-2.2,4.03-3.3,4.7-3.3,.93,0,1.4,.3,1.4,.9,0,.93-1.23,2.57-3.7,4.9-7.13,7-12.7,10.5-16.7,10.5s-6.47-1.77-7.2-5.3c-.07-.47-.1-.97-.1-1.5Zm-5.2-3.8c.6,.13,1.6-.2,3-1,1.8-1.07,3.27-2.83,4.4-5.3l.2-.3,.3-.9c0-.27-.05-.55-.15-.85-.1-.3-.18-.63-.25-1-.07-.37-.07-.68,0-.95,.07-.27,.12-.45,.15-.55,.03-.1-.08-.15-.35-.15-.33-.13-1,.03-2,.5-1.13,.67-2.2,1.63-3.2,2.9-1.13,1.33-1.93,2.9-2.4,4.7,0,.27-.05,.6-.15,1-.1,.4-.13,.78-.1,1.15,.03,.37,.22,.62,.55,.75Z"/>
    </g>
  </g>
</svg>