<?xml version="1.0" encoding="UTF-8"?>
<svg id="_Слой_2" data-name="Слой 2" xmlns="http://www.w3.org/2000/svg" viewBox="0 0 438.79 132.2">
  <g id="Layer_1" data-name="Layer 1">
    <g>
      <path d="M39.4,109c-.93,0-1.8-.1-2.6-.3-4.6-1.27-7.33-5.5-8.2-12.7-.2-1.53-.3-3.2-.3-5,0-6.47,1.23-14.33,3.7-23.6v-.1l-.7,1.2c-.53,.8-1.23,2.03-2.1,3.7-5.2,9.8-9.2,16.88-12,21.25-2.8,4.37-4.97,7.02-6.5,7.95-.8,.46-1.73,.7-2.8,.7h-.4c-2.07,0-3.63-.7-4.7-2.1-1.27-1.27-2.07-2.73-2.4-4.4-.27-1.27-.4-3.43-.4-6.5,0-8.8,2.8-21.6,8.4-38.4C16.4,26.9,23.97,11.3,31.1,3.9c1.27-1.4,2.37-2.3,3.3-2.7,.4-.13,.83-.2,1.3-.2,.6,0,1.2,.1,1.8,.3,1.07,.4,1.7,.93,1.9,1.6,0,.8-.3,1.47-.9,2-1.47,1.2-4.37,6.1-8.7,14.7-3.2,6.54-6.63,14.92-10.3,25.15-3.67,10.23-6.6,19.72-8.8,28.45-2.6,10.6-3.9,18.53-3.9,23.8,0,1.6,.2,2.4,.6,2.4,2.4,0,10.03-12.3,22.9-36.9,1.47-2.8,3.08-5.92,4.85-9.35,1.77-3.43,3.32-6.35,4.65-8.75,2-3.67,3.6-6.67,4.8-9l.9-1.6c.73-1.6,1.53-2.4,2.4-2.4,1.67,0,2.6,.6,2.8,1.8,0,.93-.25,2.28-.75,4.05-.5,1.77-1.42,4.52-2.75,8.25l-.2,.7c-2.27,6.33-3.97,11.22-5.1,14.65-1.13,3.43-2.23,7.22-3.3,11.35-1.27,4.93-2.12,8.92-2.55,11.95-.43,3.03-.65,6.48-.65,10.35,0,2.27,.03,3.98,.1,5.15,.07,1.17,.18,2.07,.35,2.7,.17,.63,.4,1.17,.7,1.6,.3,.43,.55,.83,.75,1.2,.2,.37,.37,.65,.5,.85,.13,.2,.27,.33,.4,.4,.13,.07,.3,.1,.5,.1,.73,0,1.87-.47,3.4-1.4,1.53-.93,3.27-2.4,5.2-4.4,10.13-11.4,18.93-28.07,26.4-50,4.73-14.2,7.1-26.53,7.1-37,0-4.13-.2-6.92-.6-8.35-.4-1.43-1.27-2.42-2.6-2.95-.93-.53-1.4-1.03-1.4-1.5,0-.07,.05-.23,.15-.5,.1-.27,.75-.4,1.95-.4,3.87,.47,6.17,3.87,6.9,10.2,.07,.53,.1,1.1,.1,1.7,0,3.07-.45,7.63-1.35,13.7-.9,6.07-2.12,12-3.65,17.8-6.07,21.47-14.37,39.46-24.9,54-4.07,5.4-7.63,8.93-10.7,10.6-1.33,.67-3.1,1-5.3,1Z"/>
      <path d="M89.3,79.9c-1.33,0-2.6-.3-3.8-.9-3.2-1.73-4.8-4.4-4.8-8,0-3,1.17-6.4,3.5-10.2,2.8-4.73,5.57-7.1,8.3-7.1l.4,.2c3.67,.8,5.5,2.8,5.5,6,0,1.33-.43,3-1.3,5-.6,1.4-1.29,2.48-2.05,3.25s-1.85,1.15-3.25,1.15c-.93,0-1.8-.23-2.6-.7-.47-.33-.8-.5-1-.5s-.37,.13-.5,.4c-.93,1.67-1.4,3.57-1.4,5.7,0,1.93,.47,2.9,1.4,2.9,.4,0,1.2-.2,2.4-.6,4.46-1.33,9.77-4.37,15.9-9.1,3.73-2.73,6.13-4.63,7.2-5.7,.8-.8,1.5-1.2,2.1-1.2,.47,0,.9,.23,1.3,.7,.2,.27,.3,.53,.3,.8,0,.2-.12,.5-.35,.9-.23,.4-1.05,1.13-2.45,2.2l-7.8,6.3c-1,.73-2.03,1.5-3.1,2.3-1.07,.8-2.03,1.47-2.9,2-4.6,2.8-8.27,4.2-11,4.2Zm1-13.1c.53,0,1.2-.53,2-1.6,1.6-2.13,2.4-4.23,2.4-6.3v-1.5l-1.6,1.4c-.73,.73-1.6,2.1-2.6,4.1l-.2,.3c-.4,.8-.7,1.43-.9,1.9-.2,.47-.3,.8-.3,1,0,.13,.07,.23,.2,.3,.33,.27,.67,.4,1,.4Z"/>
      <path d="M121.1,105.2c-.27,0-.63-.1-1.1-.3-.47-.2-.93-.54-1.4-1-.47-.47-.78-.97-.95-1.5-.17-.54-.25-1.43-.25-2.7,0-4.8,2.87-15.03,8.6-30.7v-.3c-.2,0-.6,.37-1.2,1.1-1.07,1.27-2.33,2.63-3.8,4.1s-2.85,2.77-4.15,3.9c-1.3,1.13-2.13,1.75-2.5,1.85-.37,.1-.68,.15-.95,.15-1.13,0-2.3-.55-3.5-1.65-1.2-1.1-1.8-2.35-1.8-3.75,0-2,.67-4.58,2-7.75,1.33-3.17,2.77-5.65,4.3-7.45,2.33-2.47,4.83-3.7,7.5-3.7,2.13,0,3.9,.9,5.3,2.7l.9,1.3,2.6-3.9c1.93-2.73,3.77-5.77,5.5-9.1,1.47-2.93,3.6-6.93,6.4-12,6.73-12.33,10.83-19.5,12.3-21.5,.53-.6,.96-.9,1.3-.9,.47,0,.82,.08,1.05,.25,.23,.17,.55,.32,.95,.45,.87,.33,1.33,.6,1.4,.8,0,.33-.93,2.47-2.8,6.4l-16.2,33.4c-3.73,7.53-7.37,15.93-10.9,25.2-2.53,6.47-4.3,11.97-5.3,16.5l-.6,2.9h.4c.53,0,1.08-.03,1.65-.1,.57-.07,.98-.1,1.25-.1,.47,.13,.7,.53,.7,1.2s-.45,1.48-1.35,2.45c-.9,.97-1.87,1.83-2.9,2.6-1.03,.77-1.85,1.15-2.45,1.15Zm-6.5-30.9c.27,0,1.07-.67,2.4-2,2.6-2.53,5.13-5.37,7.6-8.5,.47-.6,.7-1.17,.7-1.7,0-.4-.1-.8-.3-1.2-.27-1-.63-1.63-1.1-1.9-.6,0-1.33,.4-2.2,1.2-1.47,1.47-2.93,3.73-4.4,6.8-1.87,4-2.8,6.4-2.8,7.2,0,.07,.03,.1,.1,.1Z"/>
      <path d="M155,105.2c-.27,0-.63-.1-1.1-.3-.47-.2-.93-.54-1.4-1-.47-.47-.78-.97-.95-1.5-.17-.54-.25-1.43-.25-2.7,0-4.8,2.87-15.03,8.6-30.7v-.3c-.2,0-.6,.37-1.2,1.1-1.07,1.27-2.33,2.63-3.8,4.1s-2.85,2.77-4.15,3.9c-1.3,1.13-2.13,1.75-2.5,1.85-.37,.1-.68,.15-.95,.15-1.13,0-2.3-.55-3.5-1.65-1.2-1.1-1.8-2.35-1.8-3.75,0-2,.67-4.58,2-7.75,1.33-3.17,2.77-5.65,4.3-7.45,2.33-2.47,4.83-3.7,7.5-3.7,2.13,0,3.9,.9,5.3,2.7l.9,1.3,2.6-3.9c1.93-2.73,3.77-5.77,5.5-9.1,1.47-2.93,3.6-6.93,6.4-12,6.73-12.33,10.83-19.5,12.3-21.5,.53-.6,.96-.9,1.3-.9,.47,0,.82,.08,1.05,.25,.23,.17,.55,.32,.95,.45,.87,.33,1.33,.6,1.4,.8,0,.33-.93,2.47-2.8,6.4l-16.2,33.4c-3.73,7.53-7.37,15.93-10.9,25.2-2.53,6.47-4.3,11.97-5.3,16.5l-.6,2.9h.4c.53,0,1.08-.03,1.65-.1,.57-.07,.98-.1,1.25-.1,.47,.13,.7,.53,.7,1.2s-.45,1.48-1.35,2.45c-.9,.97-1.87,1.83-2.9,2.6-1.03,.77-1.85,1.15-2.45,1.15Zm-6.5-30.9c.27,0,1.07-.67,2.4-2,2.6-2.53,5.13-5.37,7.6-8.5,.47-.6,.7-1.17,.7-1.7,0-.4-.1-.8-.3-1.2-.27-1-.63-1.63-1.1-1.9-.6,0-1.33,.4-2.2,1.2-1.47,1.47-2.93,3.73-4.4,6.8-1.87,4-2.8,6.4-2.8,7.2,0,.07,.03,.1,.1,.1Z"/>
      <path d="M183.5,79.4c-1.27,0-2.4-.32-3.4-.95s-1.68-1.35-2.05-2.15c-.37-.8-.55-1.93-.55-3.4,0-2.13,.58-4.6,1.75-7.4,1.17-2.8,2.52-5.27,4.05-7.4,1.53-2.13,2.83-3.2,3.9-3.2,.8,0,1.67,.5,2.6,1.5l1.5,1.4c-3,3.8-5.63,8.33-7.9,13.6-.93,2.2-1.4,3.7-1.4,4.5,0,.53,.17,.8,.5,.8,1.93,0,6-2.13,12.2-6.4,3.67-2.6,7-4.87,10-6.8l.4-.3c1.13-.73,2.03-1.28,2.7-1.65,.67-.37,1.2-.55,1.6-.55,.2,0,.45,.07,.75,.2,.3,.13,.55,.3,.75,.5,.2,.2,.3,.37,.3,.5,0,.33-1.07,1.23-3.2,2.7l-4.7,3.3-4.7,3.4c-6.87,5.2-11.9,7.8-15.1,7.8Zm10.8-31.4c-.53,0-1.07-.2-1.6-.6-.54-.4-.8-.87-.8-1.4,0-.73,.47-1.63,1.4-2.7l.2-.3c.73-.87,1.33-1.3,1.8-1.3,.33,0,.65,.05,.95,.15,.3,.1,1.02,.62,2.15,1.55l-1.2,2.3c-.87,1.53-1.83,2.3-2.9,2.3Z"/>
      <path d="M207.6,79.8h-.3c-.6,0-1.25-.18-1.95-.55-.7-.37-1.15-.98-1.35-1.85-.07-.47-.1-1.03-.1-1.7,0-4.6,1.33-9.67,4-15.2,1.73-3.73,3-5.83,3.8-6.3,.33-.2,.7-.3,1.1-.3,1.27,0,2.37,.47,3.3,1.4,.33,.33,.5,.63,.5,.9,0,.33-.33,1.23-1,2.7-.2,.2-1,2-2.4,5.4-2.4,5.6-3.6,8.63-3.6,9.1,.2,0,2.63-2.33,7.3-7,3.6-3.73,6.43-6.5,8.5-8.3,2.07-1.8,3.73-2.7,5-2.7,.93,0,1.8,.4,2.6,1.2,.53,.4,.9,.79,1.1,1.15,.2,.37,.3,.82,.3,1.35,0,1.4-.3,3.73-.9,7v.2c-.33,2.13-.5,3.83-.5,5.1,0,.87,.08,1.42,.25,1.65,.17,.23,.48,.35,.95,.35,2.93,0,8.17-3.53,15.7-10.6,2.47-2.2,4.03-3.3,4.7-3.3,.93,0,1.4,.3,1.4,.9,0,.93-1.23,2.57-3.7,4.9-7.13,7-12.7,10.5-16.7,10.5-4.93,0-7.4-2.63-7.4-7.9l.1-1.6c.13-2.13,.4-3.87,.8-5.2l.1-.6c.13-.47,.2-.8,.2-1v-.1c-.6,.13-5.57,5-14.9,14.6-1.93,2-3.4,3.45-4.4,4.35-1,.9-1.83,1.38-2.5,1.45Z"/>
      <path d="M233.5,131.6c-1.47,0-2.7-.27-3.7-.8-3.13-1.8-4.7-4.2-4.7-7.2,0-2.6,1.23-5.73,3.7-9.4,3.47-5.07,12.27-13.3,26.4-24.7l2.8-2.3c.47-.47,1.1-1.77,1.9-3.9,.46-1.33,1.8-4.63,4-9.9,2.2-5.27,3.3-8.03,3.3-8.3-.33,0-1.9,1.77-4.7,5.3-3.73,4.6-6.43,7.53-8.1,8.8-1,.8-1.93,1.2-2.8,1.2-.6,0-1.2-.18-1.8-.55-.6-.37-1.15-1.03-1.65-2-.5-.96-.75-1.88-.75-2.75,0-2,.57-4.5,1.7-7.5,1.13-3,2.53-5.73,4.2-8.2,1.87-2.93,3.9-4.4,6.1-4.4,.73,0,1.77,.33,3.1,1,1.33,.67,2.43,1.43,3.3,2.3l1.3,1.1,4.6-4.1c.67-.53,1.17-1,1.5-1.4,.33-.4,.7-.6,1.1-.6,.27,0,.63,.13,1.1,.4,.33,0,.87,.27,1.6,.8,.4,.4,.6,.73,.6,1,0,.93-.43,2.53-1.3,4.8l-3,8.1c-2.07,5.73-3.1,8.73-3.1,9,.07,0,.82-.57,2.25-1.7,1.43-1.13,3.17-2.5,5.2-4.1,2.03-1.6,3.98-3.17,5.85-4.7,3.53-2.93,5.98-4.83,7.35-5.7,1.37-.87,2.35-1.3,2.95-1.3l.3,.1c.87,.2,1.3,.53,1.3,1,0,.2-.2,.58-.6,1.15-.4,.57-2.1,2.02-5.1,4.35l-8.2,6.4c-2.73,2.2-7.5,5.93-14.3,11.2l-6.6,16.1c-4.53,10.4-8.67,18-12.4,22.8-4.4,5.73-9.3,8.6-14.7,8.6Zm-2.5-3.4c.8,0,1.83-.3,3.1-.9,4.13-1.87,8.37-6.77,12.7-14.7,1.2-2.4,2.8-5.73,4.8-10,2.4-5.13,3.6-7.9,3.6-8.3-.73,.13-3.8,2.6-9.2,7.4-7.4,6.53-12.3,11.7-14.7,15.5-1.6,2.53-2.4,4.97-2.4,7.3,0,2.47,.7,3.7,2.1,3.7Zm21.7-52.5c.4-.27,.8-.55,1.2-.85,.4-.3,1.8-1.88,4.2-4.75l2.2-2.7c3.67-4.4,5.5-6.7,5.5-6.9,0-.27-.53-.7-1.6-1.3-.73-.27-1.3-.4-1.7-.4h-.35c-.17,0-.32,.03-.45,.1-.87,.53-2.02,2.1-3.45,4.7-1.43,2.6-2.88,5.73-4.35,9.4l-1.2,2.7Z"/>
      <path d="M324.09,105.2c-.27,0-.63-.1-1.1-.3-.47-.2-.93-.54-1.4-1-.47-.47-.78-.97-.95-1.5-.17-.54-.25-1.43-.25-2.7,0-4.8,2.87-15.03,8.6-30.7v-.3c-.2,0-.6,.37-1.2,1.1-1.07,1.27-2.33,2.63-3.8,4.1s-2.85,2.77-4.15,3.9c-1.3,1.13-2.13,1.75-2.5,1.85-.37,.1-.68,.15-.95,.15-1.13,0-2.3-.55-3.5-1.65-1.2-1.1-1.8-2.35-1.8-3.75,0-2,.67-4.58,2-7.75,1.33-3.17,2.77-5.65,4.3-7.45,2.33-2.47,4.83-3.7,7.5-3.7,2.13,0,3.9,.9,5.3,2.7l.9,1.3,2.6-3.9c1.93-2.73,3.77-5.77,5.5-9.1,1.47-2.93,3.6-6.93,6.4-12,6.73-12.33,10.83-19.5,12.3-21.5,.53-.6,.96-.9,1.3-.9,.47,0,.82,.08,1.05,.25,.23,.17,.55,.32,.95,.45,.87,.33,1.33,.6,1.4,.8,0,.33-.93,2.47-2.8,6.4l-16.2,33.4c-3.73,7.53-7.37,15.93-10.9,25.2-2.53,6.47-4.3,11.97-5.3,16.5l-.6,2.9h.4c.53,0,1.08-.03,1.65-.1,.57-.07,.98-.1,1.25-.1,.47,.13,.7,.53,.7,1.2s-.45,1.48-1.35,2.45c-.9,.97-1.87,1.83-2.9,2.6-1.03,.77-1.85,1.15-2.45,1.15Zm-6.5-30.9c.27,0,1.07-.67,2.4-2,2.6-2.53,5.13-5.37,7.6-8.5,.47-.6,.7-1.17,.7-1.7,0-.4-.1-.8-.3-1.2-.27-1-.63-1.63-1.1-1.9-.6,0-1.33,.4-2.2,1.2-1.47,1.47-2.93,3.73-4.4,6.8-1.87,4-2.8,6.4-2.8,7.2,0,.07,.03,.1,.1,.1Z"/>
      <path d="M349.19,79.5c-.53,0-1.15-.2-1.85-.6-.7-.4-1.33-.97-1.9-1.7-.57-.73-.85-1.37-.85-1.9,0-.8,.45-2.4,1.35-4.8,.9-2.4,1.9-4.65,3-6.75,1.1-2.1,2.48-4.02,4.15-5.75,2.27-2.33,4.1-3.5,5.5-3.5,1.6,0,3.1,.53,4.5,1.6,1.4,1.07,2.1,2.37,2.1,3.9,0,.67,.07,1,.2,1,.07,0,.4-.23,1-.7,.6-.47,1.37-1.07,2.3-1.8,.93-.73,1.9-1.47,2.9-2.2l1.7,1.1c1.27,.6,1.9,1.53,1.9,2.8-.07,1.27-.73,3.53-2,6.8-1.8,4.47-2.7,7.2-2.7,8.2,0,.27,.07,.4,.2,.4,1.53,0,6.4-3.27,14.6-9.8,1.46-1.27,2.78-2.32,3.95-3.15,1.17-.83,1.88-1.25,2.15-1.25,.47,0,.93,.18,1.4,.55,.46,.37,.7,.72,.7,1.05,0,.13-.8,.93-2.4,2.4-3.6,3.33-7.43,6.53-11.5,9.6-3.33,2.6-6.03,3.9-8.1,3.9-1.73,0-3.3-.7-4.7-2.1-.73-.67-1.18-1.22-1.35-1.65-.17-.43-.25-1.18-.25-2.25,0-2.13,.7-4.87,2.1-8.2l.1-.3c0-.07-.03-.1-.1-.1-.27,0-1.3,.83-3.1,2.5-5.07,4.67-8.3,7.7-9.7,9.1-1.73,1.6-2.8,2.53-3.2,2.8-.67,.53-1.37,.8-2.1,.8Zm2.5-6l4.9-4.5,5.1-4.5,.1-.2c0-.13-.13-.4-.4-.8-.47-.93-.7-1.65-.7-2.15s-.17-.75-.5-.75l-.1,.1c-.53,.27-1.43,1.28-2.7,3.05-1.27,1.77-2.47,3.72-3.6,5.85l-2.1,3.9Z"/>
      <path d="M375.79,132.2c-.8,0-1.63-.07-2.5-.2-4.8-1.4-7.2-3.6-7.2-6.6,0-4.8,9.17-15.54,27.5-32.2,3.13-2.8,5.43-4.95,6.9-6.45,1.46-1.5,2.57-3.02,3.3-4.55,.73-1.53,1.6-3.7,2.6-6.5,.87-2.13,1.67-4.3,2.4-6.5l-5.1,4.9c-2.6,2.6-4.67,4.33-6.2,5.2-1.07,.6-2.1,.9-3.1,.9-.53,0-1.03-.07-1.5-.2-1.67-.4-3.02-1.27-4.05-2.6-1.03-1.33-1.55-2.9-1.55-4.7,0-2.13,.5-4.77,1.5-7.9,2.13-6.67,4.37-10,6.7-10,.8,0,1.63,.23,2.5,.7,.87,.47,1.3,1.07,1.3,1.8-.07,.73-.53,1.93-1.4,3.6-1.13,2.13-2.13,4.48-3,7.05-.87,2.57-1.4,4.72-1.6,6.45l-.4,3,2.1-1.1c1.53-.87,3.6-2.53,6.2-5,2.6-2.47,5.08-5.08,7.45-7.85,2.37-2.77,4.02-5.02,4.95-6.75,.8-1.87,1.6-2.8,2.4-2.8,.46,0,.83,.08,1.1,.25,.27,.17,.53,.32,.8,.45,.4,.2,.68,.4,.85,.6,.17,.2,.25,.53,.25,1l-.1,2.1c0,2.6-.77,6.1-2.3,10.5-.53,1.67-.93,3.03-1.2,4.1-.27,1.07-.4,1.7-.4,1.9,.07,0,.83-.52,2.3-1.55,1.47-1.03,3.2-2.32,5.2-3.85,5.33-4.2,9.17-7.1,11.5-8.7,1.8-1.2,3-1.8,3.6-1.8,.47,0,.78,.2,.95,.6,.17,.4,.25,.67,.25,.8s-.55,.7-1.65,1.7c-1.1,1-2.48,2.13-4.15,3.4-7.6,5.67-14.37,10.83-20.3,15.5l-3,7.3c-2.6,6.27-5.42,12.3-8.45,18.1-3.04,5.8-5.82,10.57-8.35,14.3-5.6,7.73-11.3,11.6-17.1,11.6Zm-3-3.3c1.07,0,2.4-.47,4-1.4,2.87-1.8,5.63-4.57,8.3-8.3,2.67-3.73,5.83-9.27,9.5-16.6,3.07-6.27,4.6-9.6,4.6-10-.2,0-1.3,1-3.3,3-7.13,7-12.2,12.03-15.2,15.1-7,7.2-10.5,12.43-10.5,15.7,0,.73,.23,1.33,.7,1.8,.47,.47,1.1,.7,1.9,.7Z"/>
    </g>
  </g>
</svg>